<mxfile host="65bd71144e" pages="9">
    <diagram id="MmCl79y5xrPkgfWMijyW" name="Objectifs">
        <mxGraphModel dx="1118" dy="570" grid="1" gridSize="10" guides="1" tooltips="1" connect="1" arrows="1" fold="1" page="1" pageScale="1" pageWidth="827" pageHeight="1169" math="0" shadow="0">
            <root>
                <mxCell id="0"/>
                <mxCell id="1" parent="0"/>
                <mxCell id="mJS5PwnQrLyQJf3iYsTT-2" value="&lt;div style=&quot;text-align: justify&quot;&gt;&lt;b style=&quot;font-size: 24px&quot;&gt;TookanTook&lt;/b&gt;&lt;/div&gt;&lt;div style=&quot;text-align: justify&quot;&gt;&lt;br&gt;&lt;/div&gt;&lt;div style=&quot;text-align: justify&quot;&gt;&lt;span&gt;Description : un ensemble de protocoles et de recommandations informatiques.&lt;/span&gt;&lt;/div&gt;&lt;div style=&quot;text-align: justify&quot;&gt;&lt;br&gt;&lt;/div&gt;&lt;div style=&quot;text-align: justify&quot;&gt;&lt;span&gt;Objectifs :&lt;/span&gt;&lt;/div&gt;&lt;ul&gt;&lt;li style=&quot;text-align: justify&quot;&gt;Simple d'utilisation&lt;/li&gt;&lt;li style=&quot;text-align: justify&quot;&gt;Libre&lt;/li&gt;&lt;li style=&quot;text-align: justify&quot;&gt;Décentralisé&lt;/li&gt;&lt;li style=&quot;text-align: justify&quot;&gt;Sécurisé&lt;/li&gt;&lt;li style=&quot;text-align: justify&quot;&gt;Évolutif&lt;/li&gt;&lt;li style=&quot;text-align: justify&quot;&gt;Interopérable&lt;/li&gt;&lt;li style=&quot;text-align: justify&quot;&gt;Universel&lt;/li&gt;&lt;li style=&quot;text-align: justify&quot;&gt;Intégré avec Internet et le Cloud&lt;/li&gt;&lt;li style=&quot;text-align: justify&quot;&gt;Performant&lt;/li&gt;&lt;/ul&gt;" style="shape=note;whiteSpace=wrap;html=1;backgroundOutline=1;darkOpacity=0.05;fillColor=#fff2cc;strokeColor=#d6b656;align=left;verticalAlign=top;" parent="1" vertex="1">
                    <mxGeometry x="60" y="90" width="300" height="270" as="geometry"/>
                </mxCell>
            </root>
        </mxGraphModel>
    </diagram>
    <diagram id="95ChfJcYz4LJRr9AhdbQ" name="Formal Language">
        <mxGraphModel dx="1945" dy="570" grid="1" gridSize="10" guides="1" tooltips="1" connect="1" arrows="1" fold="1" page="1" pageScale="1" pageWidth="827" pageHeight="1169" math="0" shadow="0">
            <root>
                <mxCell id="v-T4cHczStaTHuqniMII-0"/>
                <mxCell id="v-T4cHczStaTHuqniMII-1" parent="v-T4cHczStaTHuqniMII-0"/>
                <mxCell id="v-T4cHczStaTHuqniMII-2" style="edgeStyle=none;rounded=0;orthogonalLoop=1;jettySize=auto;html=1;" parent="v-T4cHczStaTHuqniMII-1" source="X1EqS7hE71sx85p6JkYJ-0" target="v-T4cHczStaTHuqniMII-63" edge="1">
                    <mxGeometry relative="1" as="geometry">
                        <mxPoint x="21.124917727728644" y="741.0926643719256" as="sourcePoint"/>
                    </mxGeometry>
                </mxCell>
                <mxCell id="v-T4cHczStaTHuqniMII-3" style="edgeStyle=none;rounded=0;orthogonalLoop=1;jettySize=auto;html=1;" parent="v-T4cHczStaTHuqniMII-1" source="X1EqS7hE71sx85p6JkYJ-0" target="v-T4cHczStaTHuqniMII-45" edge="1">
                    <mxGeometry relative="1" as="geometry">
                        <mxPoint x="19.49747468305827" y="789.7487373415292" as="sourcePoint"/>
                    </mxGeometry>
                </mxCell>
                <mxCell id="v-T4cHczStaTHuqniMII-4" style="edgeStyle=none;rounded=0;orthogonalLoop=1;jettySize=auto;html=1;" parent="v-T4cHczStaTHuqniMII-1" source="v-T4cHczStaTHuqniMII-29" target="v-T4cHczStaTHuqniMII-9" edge="1">
                    <mxGeometry relative="1" as="geometry"/>
                </mxCell>
                <mxCell id="v-T4cHczStaTHuqniMII-5" style="edgeStyle=none;rounded=0;orthogonalLoop=1;jettySize=auto;html=1;" parent="v-T4cHczStaTHuqniMII-1" source="v-T4cHczStaTHuqniMII-29" target="v-T4cHczStaTHuqniMII-10" edge="1">
                    <mxGeometry relative="1" as="geometry"/>
                </mxCell>
                <mxCell id="v-T4cHczStaTHuqniMII-6" style="edgeStyle=none;rounded=0;orthogonalLoop=1;jettySize=auto;html=1;" parent="v-T4cHczStaTHuqniMII-1" source="v-T4cHczStaTHuqniMII-23" target="v-T4cHczStaTHuqniMII-21" edge="1">
                    <mxGeometry relative="1" as="geometry">
                        <mxPoint x="936.101781775031" y="359.0614614471815" as="sourcePoint"/>
                    </mxGeometry>
                </mxCell>
                <mxCell id="v-T4cHczStaTHuqniMII-7" style="edgeStyle=none;rounded=0;orthogonalLoop=1;jettySize=auto;html=1;" parent="v-T4cHczStaTHuqniMII-1" source="v-T4cHczStaTHuqniMII-23" target="v-T4cHczStaTHuqniMII-29" edge="1">
                    <mxGeometry relative="1" as="geometry">
                        <mxPoint x="959.3225811337772" y="296.04428116512804" as="sourcePoint"/>
                    </mxGeometry>
                </mxCell>
                <mxCell id="v-T4cHczStaTHuqniMII-8" style="edgeStyle=none;rounded=0;orthogonalLoop=1;jettySize=auto;html=1;" parent="v-T4cHczStaTHuqniMII-1" source="v-T4cHczStaTHuqniMII-23" target="v-T4cHczStaTHuqniMII-48" edge="1">
                    <mxGeometry relative="1" as="geometry">
                        <mxPoint x="961.9999999999982" y="352.99999999999864" as="sourcePoint"/>
                    </mxGeometry>
                </mxCell>
                <mxCell id="v-T4cHczStaTHuqniMII-9" value="Pour tout..." style="ellipse;whiteSpace=wrap;html=1;fillColor=#fff2cc;strokeColor=#d6b656;" parent="v-T4cHczStaTHuqniMII-1" vertex="1">
                    <mxGeometry x="790" y="40" width="140" height="70" as="geometry"/>
                </mxCell>
                <mxCell id="v-T4cHczStaTHuqniMII-10" value="Pour au moins un..." style="ellipse;whiteSpace=wrap;html=1;fillColor=#fff2cc;strokeColor=#d6b656;" parent="v-T4cHczStaTHuqniMII-1" vertex="1">
                    <mxGeometry x="860" y="110" width="140" height="70" as="geometry"/>
                </mxCell>
                <mxCell id="v-T4cHczStaTHuqniMII-11" style="edgeStyle=none;rounded=0;orthogonalLoop=1;jettySize=auto;html=1;" parent="v-T4cHczStaTHuqniMII-1" source="v-T4cHczStaTHuqniMII-16" target="v-T4cHczStaTHuqniMII-23" edge="1">
                    <mxGeometry relative="1" as="geometry"/>
                </mxCell>
                <mxCell id="v-T4cHczStaTHuqniMII-12" style="edgeStyle=none;rounded=0;orthogonalLoop=1;jettySize=auto;html=1;fillColor=#ffe6cc;strokeColor=#000000;strokeWidth=1;" parent="v-T4cHczStaTHuqniMII-1" source="v-T4cHczStaTHuqniMII-16" target="v-T4cHczStaTHuqniMII-33" edge="1">
                    <mxGeometry relative="1" as="geometry"/>
                </mxCell>
                <mxCell id="v-T4cHczStaTHuqniMII-13" style="edgeStyle=none;rounded=0;orthogonalLoop=1;jettySize=auto;html=1;" parent="v-T4cHczStaTHuqniMII-1" source="v-T4cHczStaTHuqniMII-16" target="v-T4cHczStaTHuqniMII-40" edge="1">
                    <mxGeometry relative="1" as="geometry"/>
                </mxCell>
                <mxCell id="v-T4cHczStaTHuqniMII-14" style="edgeStyle=none;rounded=0;orthogonalLoop=1;jettySize=auto;html=1;strokeWidth=1;fillColor=#e1d5e7;strokeColor=#000000;" parent="v-T4cHczStaTHuqniMII-1" source="v-T4cHczStaTHuqniMII-16" target="v-T4cHczStaTHuqniMII-53" edge="1">
                    <mxGeometry relative="1" as="geometry"/>
                </mxCell>
                <mxCell id="v-T4cHczStaTHuqniMII-15" style="edgeStyle=none;rounded=0;orthogonalLoop=1;jettySize=auto;html=1;" parent="v-T4cHczStaTHuqniMII-1" source="v-T4cHczStaTHuqniMII-16" target="v-T4cHczStaTHuqniMII-69" edge="1">
                    <mxGeometry relative="1" as="geometry"/>
                </mxCell>
                <mxCell id="fllVbso1EUG3srJYqAMV-1" style="rounded=0;orthogonalLoop=1;jettySize=auto;html=1;" parent="v-T4cHczStaTHuqniMII-1" source="v-T4cHczStaTHuqniMII-16" target="fllVbso1EUG3srJYqAMV-0" edge="1">
                    <mxGeometry relative="1" as="geometry"/>
                </mxCell>
                <mxCell id="v-T4cHczStaTHuqniMII-16" value="Assertion" style="ellipse;whiteSpace=wrap;html=1;fillColor=#f8cecc;strokeColor=#b85450;" parent="v-T4cHczStaTHuqniMII-1" vertex="1">
                    <mxGeometry x="350" y="490" width="140" height="70" as="geometry"/>
                </mxCell>
                <mxCell id="v-T4cHczStaTHuqniMII-17" style="edgeStyle=none;rounded=0;orthogonalLoop=1;jettySize=auto;html=1;" parent="v-T4cHczStaTHuqniMII-1" source="v-T4cHczStaTHuqniMII-23" target="v-T4cHczStaTHuqniMII-18" edge="1">
                    <mxGeometry relative="1" as="geometry">
                        <mxPoint x="989.5871523625594" y="328.79566285613964" as="sourcePoint"/>
                    </mxGeometry>
                </mxCell>
                <mxCell id="v-T4cHczStaTHuqniMII-18" value="Nouveau système de variable" style="ellipse;whiteSpace=wrap;html=1;fillColor=#dae8fc;strokeColor=#6c8ebf;" parent="v-T4cHczStaTHuqniMII-1" vertex="1">
                    <mxGeometry x="820" y="200" width="140" height="70" as="geometry"/>
                </mxCell>
                <mxCell id="v-T4cHczStaTHuqniMII-19" style="edgeStyle=none;rounded=0;orthogonalLoop=1;jettySize=auto;html=1;exitX=0.5;exitY=0;exitDx=0;exitDy=0;" parent="v-T4cHczStaTHuqniMII-1" edge="1">
                    <mxGeometry relative="1" as="geometry">
                        <mxPoint x="800" y="250" as="sourcePoint"/>
                        <mxPoint x="800" y="250" as="targetPoint"/>
                    </mxGeometry>
                </mxCell>
                <mxCell id="v-T4cHczStaTHuqniMII-20" style="edgeStyle=none;rounded=0;orthogonalLoop=1;jettySize=auto;html=1;strokeWidth=1;fillColor=#e1d5e7;strokeColor=#9673a6;" parent="v-T4cHczStaTHuqniMII-1" source="v-T4cHczStaTHuqniMII-21" target="v-T4cHczStaTHuqniMII-23" edge="1">
                    <mxGeometry relative="1" as="geometry"/>
                </mxCell>
                <mxCell id="v-T4cHczStaTHuqniMII-21" value="Objet" style="ellipse;whiteSpace=wrap;html=1;fillColor=#dae8fc;strokeColor=#6c8ebf;" parent="v-T4cHczStaTHuqniMII-1" vertex="1">
                    <mxGeometry x="820" y="380" width="140" height="70" as="geometry"/>
                </mxCell>
                <mxCell id="v-T4cHczStaTHuqniMII-22" style="edgeStyle=none;rounded=0;orthogonalLoop=1;jettySize=auto;html=1;strokeWidth=1;fillColor=#e1d5e7;strokeColor=#9673a6;" parent="v-T4cHczStaTHuqniMII-1" source="v-T4cHczStaTHuqniMII-23" target="v-T4cHczStaTHuqniMII-16" edge="1">
                    <mxGeometry relative="1" as="geometry"/>
                </mxCell>
                <mxCell id="v-T4cHczStaTHuqniMII-23" value="Quantification" style="ellipse;whiteSpace=wrap;html=1;fillColor=#fff2cc;strokeColor=#d6b656;" parent="v-T4cHczStaTHuqniMII-1" vertex="1">
                    <mxGeometry x="530" y="300" width="140" height="70" as="geometry"/>
                </mxCell>
                <mxCell id="v-T4cHczStaTHuqniMII-24" style="edgeStyle=none;rounded=0;orthogonalLoop=1;jettySize=auto;html=1;" parent="v-T4cHczStaTHuqniMII-1" source="v-T4cHczStaTHuqniMII-40" target="v-T4cHczStaTHuqniMII-27" edge="1">
                    <mxGeometry relative="1" as="geometry"/>
                </mxCell>
                <mxCell id="v-T4cHczStaTHuqniMII-25" style="edgeStyle=none;rounded=0;orthogonalLoop=1;jettySize=auto;html=1;strokeWidth=1;fillColor=#e1d5e7;strokeColor=#000000;" parent="v-T4cHczStaTHuqniMII-1" source="v-T4cHczStaTHuqniMII-40" target="v-T4cHczStaTHuqniMII-28" edge="1">
                    <mxGeometry relative="1" as="geometry"/>
                </mxCell>
                <mxCell id="v-T4cHczStaTHuqniMII-26" style="rounded=0;orthogonalLoop=1;jettySize=auto;html=1;" parent="v-T4cHczStaTHuqniMII-1" source="v-T4cHczStaTHuqniMII-27" target="v-T4cHczStaTHuqniMII-65" edge="1">
                    <mxGeometry relative="1" as="geometry"/>
                </mxCell>
                <mxCell id="v-T4cHczStaTHuqniMII-27" value="Alternative" style="ellipse;whiteSpace=wrap;html=1;fillColor=#fff2cc;strokeColor=#d6b656;" parent="v-T4cHczStaTHuqniMII-1" vertex="1">
                    <mxGeometry x="290" y="160" width="140" height="70" as="geometry"/>
                </mxCell>
                <mxCell id="v-T4cHczStaTHuqniMII-28" value="Booléen" style="ellipse;whiteSpace=wrap;html=1;fillColor=#dae8fc;strokeColor=#6c8ebf;" parent="v-T4cHczStaTHuqniMII-1" vertex="1">
                    <mxGeometry x="60" y="220" width="140" height="70" as="geometry"/>
                </mxCell>
                <mxCell id="v-T4cHczStaTHuqniMII-29" value="Quantificateur" style="ellipse;whiteSpace=wrap;html=1;fillColor=#dae8fc;strokeColor=#6c8ebf;" parent="v-T4cHczStaTHuqniMII-1" vertex="1">
                    <mxGeometry x="640" y="150" width="140" height="70" as="geometry"/>
                </mxCell>
                <mxCell id="v-T4cHczStaTHuqniMII-30" style="edgeStyle=none;rounded=0;orthogonalLoop=1;jettySize=auto;html=1;" parent="v-T4cHczStaTHuqniMII-1" source="v-T4cHczStaTHuqniMII-33" target="v-T4cHczStaTHuqniMII-34" edge="1">
                    <mxGeometry relative="1" as="geometry"/>
                </mxCell>
                <mxCell id="v-T4cHczStaTHuqniMII-31" style="edgeStyle=none;rounded=0;orthogonalLoop=1;jettySize=auto;html=1;" parent="v-T4cHczStaTHuqniMII-1" source="v-T4cHczStaTHuqniMII-33" target="v-T4cHczStaTHuqniMII-36" edge="1">
                    <mxGeometry relative="1" as="geometry"/>
                </mxCell>
                <mxCell id="v-T4cHczStaTHuqniMII-32" style="edgeStyle=none;rounded=0;orthogonalLoop=1;jettySize=auto;html=1;strokeWidth=1;fillColor=#e1d5e7;strokeColor=#9673a6;" parent="v-T4cHczStaTHuqniMII-1" source="v-T4cHczStaTHuqniMII-33" target="v-T4cHczStaTHuqniMII-16" edge="1">
                    <mxGeometry relative="1" as="geometry"/>
                </mxCell>
                <mxCell id="v-T4cHczStaTHuqniMII-33" value="Définition / assignation" style="ellipse;whiteSpace=wrap;html=1;fillColor=#fff2cc;strokeColor=#d6b656;" parent="v-T4cHczStaTHuqniMII-1" vertex="1">
                    <mxGeometry x="60" y="480" width="140" height="70" as="geometry"/>
                </mxCell>
                <mxCell id="v-T4cHczStaTHuqniMII-34" value="Nouveau système de variable" style="ellipse;whiteSpace=wrap;html=1;fillColor=#dae8fc;strokeColor=#6c8ebf;" parent="v-T4cHczStaTHuqniMII-1" vertex="1">
                    <mxGeometry x="-220" y="480" width="140" height="70" as="geometry"/>
                </mxCell>
                <mxCell id="v-T4cHczStaTHuqniMII-35" style="edgeStyle=none;rounded=0;orthogonalLoop=1;jettySize=auto;html=1;fillColor=#e1d5e7;strokeColor=#9673a6;" parent="v-T4cHczStaTHuqniMII-1" source="v-T4cHczStaTHuqniMII-36" target="v-T4cHczStaTHuqniMII-33" edge="1">
                    <mxGeometry relative="1" as="geometry"/>
                </mxCell>
                <mxCell id="v-T4cHczStaTHuqniMII-36" value="Objet" style="ellipse;whiteSpace=wrap;html=1;fillColor=#dae8fc;strokeColor=#6c8ebf;" parent="v-T4cHczStaTHuqniMII-1" vertex="1">
                    <mxGeometry x="-150" y="400" width="140" height="70" as="geometry"/>
                </mxCell>
                <mxCell id="v-T4cHczStaTHuqniMII-37" style="edgeStyle=none;rounded=0;orthogonalLoop=1;jettySize=auto;html=1;fillColor=#ffe6cc;strokeColor=#000000;strokeWidth=1;" parent="v-T4cHczStaTHuqniMII-1" source="v-T4cHczStaTHuqniMII-40" target="v-T4cHczStaTHuqniMII-41" edge="1">
                    <mxGeometry relative="1" as="geometry"/>
                </mxCell>
                <mxCell id="v-T4cHczStaTHuqniMII-38" style="edgeStyle=none;rounded=0;orthogonalLoop=1;jettySize=auto;html=1;" parent="v-T4cHczStaTHuqniMII-1" source="v-T4cHczStaTHuqniMII-40" target="v-T4cHczStaTHuqniMII-67" edge="1">
                    <mxGeometry relative="1" as="geometry"/>
                </mxCell>
                <mxCell id="v-T4cHczStaTHuqniMII-39" style="edgeStyle=none;rounded=0;orthogonalLoop=1;jettySize=auto;html=1;strokeWidth=1;fillColor=#e1d5e7;strokeColor=#9673a6;" parent="v-T4cHczStaTHuqniMII-1" source="v-T4cHczStaTHuqniMII-40" target="v-T4cHczStaTHuqniMII-16" edge="1">
                    <mxGeometry relative="1" as="geometry"/>
                </mxCell>
                <mxCell id="v-T4cHczStaTHuqniMII-40" value="Structure conditionnelle" style="ellipse;whiteSpace=wrap;html=1;fillColor=#fff2cc;strokeColor=#d6b656;" parent="v-T4cHczStaTHuqniMII-1" vertex="1">
                    <mxGeometry x="300" y="290" width="140" height="70" as="geometry"/>
                </mxCell>
                <mxCell id="v-T4cHczStaTHuqniMII-41" value="Répétition" style="ellipse;whiteSpace=wrap;html=1;fillColor=#fff2cc;strokeColor=#d6b656;" parent="v-T4cHczStaTHuqniMII-1" vertex="1">
                    <mxGeometry x="450" y="160" width="140" height="70" as="geometry"/>
                </mxCell>
                <mxCell id="v-T4cHczStaTHuqniMII-42" style="edgeStyle=none;rounded=0;orthogonalLoop=1;jettySize=auto;html=1;" parent="v-T4cHczStaTHuqniMII-1" source="v-T4cHczStaTHuqniMII-63" target="v-T4cHczStaTHuqniMII-54" edge="1">
                    <mxGeometry relative="1" as="geometry"/>
                </mxCell>
                <mxCell id="v-T4cHczStaTHuqniMII-43" style="edgeStyle=none;rounded=0;orthogonalLoop=1;jettySize=auto;html=1;" parent="v-T4cHczStaTHuqniMII-1" source="v-T4cHczStaTHuqniMII-45" target="v-T4cHczStaTHuqniMII-55" edge="1">
                    <mxGeometry relative="1" as="geometry"/>
                </mxCell>
                <mxCell id="v-T4cHczStaTHuqniMII-44" style="edgeStyle=none;rounded=0;orthogonalLoop=1;jettySize=auto;html=1;" parent="v-T4cHczStaTHuqniMII-1" source="v-T4cHczStaTHuqniMII-45" target="v-T4cHczStaTHuqniMII-56" edge="1">
                    <mxGeometry relative="1" as="geometry"/>
                </mxCell>
                <mxCell id="GKoyHZJA9tY0vmX-Lvy--2" style="edgeStyle=none;rounded=0;orthogonalLoop=1;jettySize=auto;html=1;" parent="v-T4cHczStaTHuqniMII-1" source="v-T4cHczStaTHuqniMII-45" target="GKoyHZJA9tY0vmX-Lvy--1" edge="1">
                    <mxGeometry relative="1" as="geometry"/>
                </mxCell>
                <mxCell id="v-T4cHczStaTHuqniMII-45" value="Description en compréhension" style="ellipse;whiteSpace=wrap;html=1;fillColor=#fff2cc;strokeColor=#d6b656;" parent="v-T4cHczStaTHuqniMII-1" vertex="1">
                    <mxGeometry x="650" y="740" width="140" height="70" as="geometry"/>
                </mxCell>
                <mxCell id="v-T4cHczStaTHuqniMII-46" value="Booléen" style="ellipse;whiteSpace=wrap;html=1;fillColor=#dae8fc;strokeColor=#6c8ebf;" parent="v-T4cHczStaTHuqniMII-1" vertex="1">
                    <mxGeometry x="1040" y="280" width="140" height="70" as="geometry"/>
                </mxCell>
                <mxCell id="v-T4cHczStaTHuqniMII-47" style="edgeStyle=none;rounded=0;orthogonalLoop=1;jettySize=auto;html=1;strokeWidth=1;" parent="v-T4cHczStaTHuqniMII-1" source="v-T4cHczStaTHuqniMII-48" target="v-T4cHczStaTHuqniMII-46" edge="1">
                    <mxGeometry relative="1" as="geometry"/>
                </mxCell>
                <mxCell id="v-T4cHczStaTHuqniMII-48" value="Filtre&lt;br&gt;(tel que ...)" style="ellipse;whiteSpace=wrap;html=1;fillColor=#d5e8d4;strokeColor=#82b366;" parent="v-T4cHczStaTHuqniMII-1" vertex="1">
                    <mxGeometry x="820" y="290" width="140" height="70" as="geometry"/>
                </mxCell>
                <mxCell id="v-T4cHczStaTHuqniMII-49" style="edgeStyle=none;rounded=0;orthogonalLoop=1;jettySize=auto;html=1;strokeWidth=1;fillColor=#e1d5e7;strokeColor=#000000;" parent="v-T4cHczStaTHuqniMII-1" source="v-T4cHczStaTHuqniMII-16" target="v-T4cHczStaTHuqniMII-60" edge="1">
                    <mxGeometry relative="1" as="geometry"/>
                </mxCell>
                <mxCell id="v-T4cHczStaTHuqniMII-50" style="edgeStyle=none;rounded=0;orthogonalLoop=1;jettySize=auto;html=1;strokeWidth=1;fillColor=#e1d5e7;strokeColor=#9673a6;" parent="v-T4cHczStaTHuqniMII-1" source="v-T4cHczStaTHuqniMII-53" target="v-T4cHczStaTHuqniMII-16" edge="1">
                    <mxGeometry relative="1" as="geometry"/>
                </mxCell>
                <mxCell id="v-T4cHczStaTHuqniMII-51" style="rounded=0;orthogonalLoop=1;jettySize=auto;html=1;" parent="v-T4cHczStaTHuqniMII-1" source="GKoyHZJA9tY0vmX-Lvy--3" target="v-T4cHczStaTHuqniMII-75" edge="1">
                    <mxGeometry relative="1" as="geometry"/>
                </mxCell>
                <mxCell id="v-T4cHczStaTHuqniMII-52" style="edgeStyle=none;rounded=0;orthogonalLoop=1;jettySize=auto;html=1;" parent="v-T4cHczStaTHuqniMII-1" source="GKoyHZJA9tY0vmX-Lvy--3" target="v-T4cHczStaTHuqniMII-85" edge="1">
                    <mxGeometry relative="1" as="geometry"/>
                </mxCell>
                <mxCell id="GKoyHZJA9tY0vmX-Lvy--4" style="edgeStyle=none;rounded=0;orthogonalLoop=1;jettySize=auto;html=1;" parent="v-T4cHczStaTHuqniMII-1" source="v-T4cHczStaTHuqniMII-53" target="GKoyHZJA9tY0vmX-Lvy--3" edge="1">
                    <mxGeometry relative="1" as="geometry"/>
                </mxCell>
                <mxCell id="X1EqS7hE71sx85p6JkYJ-1" style="rounded=0;orthogonalLoop=1;jettySize=auto;html=1;" parent="v-T4cHczStaTHuqniMII-1" source="v-T4cHczStaTHuqniMII-53" target="X1EqS7hE71sx85p6JkYJ-0" edge="1">
                    <mxGeometry relative="1" as="geometry"/>
                </mxCell>
                <mxCell id="v-T4cHczStaTHuqniMII-53" value="Définition d'un objet" style="ellipse;whiteSpace=wrap;html=1;fillColor=#fff2cc;strokeColor=#d6b656;" parent="v-T4cHczStaTHuqniMII-1" vertex="1">
                    <mxGeometry x="340" y="610" width="140" height="70" as="geometry"/>
                </mxCell>
                <mxCell id="v-T4cHczStaTHuqniMII-54" value="Objet[]" style="ellipse;whiteSpace=wrap;html=1;fillColor=#dae8fc;strokeColor=#6c8ebf;" parent="v-T4cHczStaTHuqniMII-1" vertex="1">
                    <mxGeometry x="460" y="940" width="140" height="70" as="geometry"/>
                </mxCell>
                <mxCell id="v-T4cHczStaTHuqniMII-55" value="Objet" style="ellipse;whiteSpace=wrap;html=1;fillColor=#dae8fc;strokeColor=#6c8ebf;" parent="v-T4cHczStaTHuqniMII-1" vertex="1">
                    <mxGeometry x="870" y="740" width="140" height="70" as="geometry"/>
                </mxCell>
                <mxCell id="v-T4cHczStaTHuqniMII-56" value="Booléen" style="ellipse;whiteSpace=wrap;html=1;fillColor=#dae8fc;strokeColor=#6c8ebf;" parent="v-T4cHczStaTHuqniMII-1" vertex="1">
                    <mxGeometry x="690" y="890" width="140" height="70" as="geometry"/>
                </mxCell>
                <mxCell id="v-T4cHczStaTHuqniMII-57" style="edgeStyle=none;rounded=0;orthogonalLoop=1;jettySize=auto;html=1;" parent="v-T4cHczStaTHuqniMII-1" source="v-T4cHczStaTHuqniMII-60" target="v-T4cHczStaTHuqniMII-61" edge="1">
                    <mxGeometry relative="1" as="geometry"/>
                </mxCell>
                <mxCell id="v-T4cHczStaTHuqniMII-58" style="edgeStyle=none;rounded=0;orthogonalLoop=1;jettySize=auto;html=1;" parent="v-T4cHczStaTHuqniMII-1" source="v-T4cHczStaTHuqniMII-60" target="v-T4cHczStaTHuqniMII-62" edge="1">
                    <mxGeometry relative="1" as="geometry"/>
                </mxCell>
                <mxCell id="v-T4cHczStaTHuqniMII-59" style="edgeStyle=none;rounded=0;orthogonalLoop=1;jettySize=auto;html=1;strokeWidth=1;fillColor=#e1d5e7;strokeColor=#9673a6;" parent="v-T4cHczStaTHuqniMII-1" source="v-T4cHczStaTHuqniMII-60" target="v-T4cHczStaTHuqniMII-16" edge="1">
                    <mxGeometry relative="1" as="geometry"/>
                </mxCell>
                <mxCell id="v-T4cHczStaTHuqniMII-60" value="Appel d'une fonction" style="ellipse;whiteSpace=wrap;html=1;fillColor=#fff2cc;strokeColor=#d6b656;" parent="v-T4cHczStaTHuqniMII-1" vertex="1">
                    <mxGeometry x="600" y="540" width="140" height="70" as="geometry"/>
                </mxCell>
                <mxCell id="v-T4cHczStaTHuqniMII-61" value="Fonction" style="ellipse;whiteSpace=wrap;html=1;fillColor=#dae8fc;strokeColor=#6c8ebf;" parent="v-T4cHczStaTHuqniMII-1" vertex="1">
                    <mxGeometry x="770" y="620" width="140" height="70" as="geometry"/>
                </mxCell>
                <mxCell id="v-T4cHczStaTHuqniMII-62" value="Objet" style="ellipse;whiteSpace=wrap;html=1;fillColor=#dae8fc;strokeColor=#6c8ebf;" parent="v-T4cHczStaTHuqniMII-1" vertex="1">
                    <mxGeometry x="800" y="490" width="140" height="70" as="geometry"/>
                </mxCell>
                <mxCell id="v-T4cHczStaTHuqniMII-63" value="Description explicite" style="ellipse;whiteSpace=wrap;html=1;fillColor=#fff2cc;strokeColor=#d6b656;" parent="v-T4cHczStaTHuqniMII-1" vertex="1">
                    <mxGeometry x="430" y="810" width="140" height="70" as="geometry"/>
                </mxCell>
                <mxCell id="v-T4cHczStaTHuqniMII-64" style="edgeStyle=none;rounded=0;orthogonalLoop=1;jettySize=auto;html=1;strokeWidth=1;fillColor=#e1d5e7;strokeColor=#9673a6;" parent="v-T4cHczStaTHuqniMII-1" source="v-T4cHczStaTHuqniMII-65" target="v-T4cHczStaTHuqniMII-27" edge="1">
                    <mxGeometry relative="1" as="geometry"/>
                </mxCell>
                <mxCell id="v-T4cHczStaTHuqniMII-65" value="Objet" style="ellipse;whiteSpace=wrap;html=1;fillColor=#dae8fc;strokeColor=#6c8ebf;" parent="v-T4cHczStaTHuqniMII-1" vertex="1">
                    <mxGeometry x="250" y="50" width="140" height="70" as="geometry"/>
                </mxCell>
                <mxCell id="v-T4cHczStaTHuqniMII-66" style="edgeStyle=none;rounded=0;orthogonalLoop=1;jettySize=auto;html=1;strokeWidth=1;fillColor=#e1d5e7;strokeColor=#9673a6;" parent="v-T4cHczStaTHuqniMII-1" source="v-T4cHczStaTHuqniMII-67" target="v-T4cHczStaTHuqniMII-40" edge="1">
                    <mxGeometry relative="1" as="geometry">
                        <mxPoint x="270" y="230" as="targetPoint"/>
                    </mxGeometry>
                </mxCell>
                <mxCell id="v-T4cHczStaTHuqniMII-67" value="Objet" style="ellipse;whiteSpace=wrap;html=1;fillColor=#dae8fc;strokeColor=#6c8ebf;" parent="v-T4cHczStaTHuqniMII-1" vertex="1">
                    <mxGeometry x="130" y="130" width="140" height="70" as="geometry"/>
                </mxCell>
                <mxCell id="v-T4cHczStaTHuqniMII-68" style="edgeStyle=none;rounded=0;orthogonalLoop=1;jettySize=auto;html=1;fillColor=#e1d5e7;strokeColor=#9673a6;" parent="v-T4cHczStaTHuqniMII-1" source="v-T4cHczStaTHuqniMII-69" target="v-T4cHczStaTHuqniMII-16" edge="1">
                    <mxGeometry relative="1" as="geometry"/>
                </mxCell>
                <mxCell id="v-T4cHczStaTHuqniMII-69" value="Appel d'une variable" style="ellipse;whiteSpace=wrap;html=1;fillColor=#fff2cc;strokeColor=#d6b656;" parent="v-T4cHczStaTHuqniMII-1" vertex="1">
                    <mxGeometry x="580" y="420" width="140" height="70" as="geometry"/>
                </mxCell>
                <mxCell id="v-T4cHczStaTHuqniMII-74" style="edgeStyle=none;rounded=0;orthogonalLoop=1;jettySize=auto;html=1;" parent="v-T4cHczStaTHuqniMII-1" source="v-T4cHczStaTHuqniMII-75" target="v-T4cHczStaTHuqniMII-77" edge="1">
                    <mxGeometry relative="1" as="geometry"/>
                </mxCell>
                <mxCell id="v-T4cHczStaTHuqniMII-75" value="Enregistrement" style="ellipse;whiteSpace=wrap;html=1;fillColor=#fff2cc;strokeColor=#d6b656;" parent="v-T4cHczStaTHuqniMII-1" vertex="1">
                    <mxGeometry x="-20" y="730" width="140" height="70" as="geometry"/>
                </mxCell>
                <mxCell id="GKoyHZJA9tY0vmX-Lvy--38" style="edgeStyle=none;rounded=0;orthogonalLoop=1;jettySize=auto;html=1;" parent="v-T4cHczStaTHuqniMII-1" source="v-T4cHczStaTHuqniMII-77" target="GKoyHZJA9tY0vmX-Lvy--32" edge="1">
                    <mxGeometry relative="1" as="geometry"/>
                </mxCell>
                <mxCell id="v-T4cHczStaTHuqniMII-77" value="Champ[]" style="ellipse;whiteSpace=wrap;html=1;fillColor=#dae8fc;strokeColor=#6c8ebf;" parent="v-T4cHczStaTHuqniMII-1" vertex="1">
                    <mxGeometry x="-210" y="780" width="140" height="70" as="geometry"/>
                </mxCell>
                <mxCell id="v-T4cHczStaTHuqniMII-84" style="rounded=0;orthogonalLoop=1;jettySize=auto;html=1;" parent="v-T4cHczStaTHuqniMII-1" source="v-T4cHczStaTHuqniMII-85" target="v-T4cHczStaTHuqniMII-86" edge="1">
                    <mxGeometry relative="1" as="geometry"/>
                </mxCell>
                <mxCell id="v-T4cHczStaTHuqniMII-85" value="Couple" style="ellipse;whiteSpace=wrap;html=1;fillColor=#fff2cc;strokeColor=#d6b656;" parent="v-T4cHczStaTHuqniMII-1" vertex="1">
                    <mxGeometry x="210" y="850" width="140" height="70" as="geometry"/>
                </mxCell>
                <mxCell id="v-T4cHczStaTHuqniMII-86" value="Objet[]" style="ellipse;whiteSpace=wrap;html=1;fillColor=#dae8fc;strokeColor=#6c8ebf;" parent="v-T4cHczStaTHuqniMII-1" vertex="1">
                    <mxGeometry x="240" y="990" width="140" height="70" as="geometry"/>
                </mxCell>
                <mxCell id="v-T4cHczStaTHuqniMII-87" style="edgeStyle=none;rounded=0;orthogonalLoop=1;jettySize=auto;html=1;" parent="v-T4cHczStaTHuqniMII-1" source="v-T4cHczStaTHuqniMII-90" target="v-T4cHczStaTHuqniMII-91" edge="1">
                    <mxGeometry relative="1" as="geometry"/>
                </mxCell>
                <mxCell id="v-T4cHczStaTHuqniMII-88" style="edgeStyle=none;rounded=0;orthogonalLoop=1;jettySize=auto;html=1;" parent="v-T4cHczStaTHuqniMII-1" source="v-T4cHczStaTHuqniMII-90" target="v-T4cHczStaTHuqniMII-92" edge="1">
                    <mxGeometry relative="1" as="geometry"/>
                </mxCell>
                <mxCell id="v-T4cHczStaTHuqniMII-89" style="edgeStyle=none;rounded=0;orthogonalLoop=1;jettySize=auto;html=1;" parent="v-T4cHczStaTHuqniMII-1" source="v-T4cHczStaTHuqniMII-90" target="v-T4cHczStaTHuqniMII-93" edge="1">
                    <mxGeometry relative="1" as="geometry"/>
                </mxCell>
                <mxCell id="v-T4cHczStaTHuqniMII-90" value="Passage d'un objet" style="ellipse;whiteSpace=wrap;html=1;fillColor=#e1d5e7;strokeColor=#9673a6;" parent="v-T4cHczStaTHuqniMII-1" vertex="1">
                    <mxGeometry x="1230" y="320" width="140" height="70" as="geometry"/>
                </mxCell>
                <mxCell id="v-T4cHczStaTHuqniMII-91" value="Référence" style="ellipse;whiteSpace=wrap;html=1;fillColor=#fff2cc;strokeColor=#d6b656;" parent="v-T4cHczStaTHuqniMII-1" vertex="1">
                    <mxGeometry x="1450" y="290" width="140" height="70" as="geometry"/>
                </mxCell>
                <mxCell id="v-T4cHczStaTHuqniMII-92" value="Copie $" style="ellipse;whiteSpace=wrap;html=1;fillColor=#fff2cc;strokeColor=#d6b656;" parent="v-T4cHczStaTHuqniMII-1" vertex="1">
                    <mxGeometry x="1400" y="390" width="140" height="70" as="geometry"/>
                </mxCell>
                <mxCell id="v-T4cHczStaTHuqniMII-93" value="Lien @" style="ellipse;whiteSpace=wrap;html=1;fillColor=#fff2cc;strokeColor=#d6b656;" parent="v-T4cHczStaTHuqniMII-1" vertex="1">
                    <mxGeometry x="1230" y="440" width="140" height="70" as="geometry"/>
                </mxCell>
                <mxCell id="7BYSzy-bChI3rSblsOVq-0" value="&lt;div style=&quot;text-align: justify&quot;&gt;&lt;b style=&quot;font-size: 24px&quot;&gt;Formal Language&lt;/b&gt;&lt;/div&gt;&lt;div style=&quot;text-align: justify&quot;&gt;&lt;br&gt;&lt;/div&gt;&lt;div style=&quot;text-align: justify&quot;&gt;Ce langage permet potentiellement de tout faire. Son principal objectif est de fournir une syntaxe formelle générale pour faire des mathématiques, créer des programmes, communiquer avec ou entre ordinateurs, créer des scripts... potentiellement, tout ce qu'un langage formel peut faire.&lt;/div&gt;&lt;div style=&quot;text-align: justify&quot;&gt;&lt;br&gt;&lt;/div&gt;&lt;div style=&quot;text-align: justify&quot;&gt;Le compilateur tente de créer le programme le plus optimisé possible en ne considérant que les tâches &quot;utiles&quot; et en pré-calculant le plus de chose possible. Ainsi, il va partir des instructions qui ont réellement une utilité puis remonter l'arbre afin de prendre en compte toutes les assertions préalablement nécessaire au calcul. Si un calcul peut être effectué immédiatement (ie ne dépendant pas de paramètre inconnu), il le sera affin d'accélérer le calcul lors de l'exécution.&lt;/div&gt;" style="shape=note;whiteSpace=wrap;html=1;backgroundOutline=1;darkOpacity=0.05;fillColor=#fff2cc;strokeColor=#d6b656;align=left;verticalAlign=top;" parent="v-T4cHczStaTHuqniMII-1" vertex="1">
                    <mxGeometry x="-760" y="40" width="470" height="310" as="geometry"/>
                </mxCell>
                <mxCell id="fllVbso1EUG3srJYqAMV-2" style="edgeStyle=none;rounded=0;orthogonalLoop=1;jettySize=auto;html=1;fillColor=#e1d5e7;strokeColor=#9673a6;" parent="v-T4cHczStaTHuqniMII-1" source="fllVbso1EUG3srJYqAMV-0" target="v-T4cHczStaTHuqniMII-16" edge="1">
                    <mxGeometry relative="1" as="geometry"/>
                </mxCell>
                <mxCell id="fllVbso1EUG3srJYqAMV-0" value="Suppression" style="ellipse;whiteSpace=wrap;html=1;fillColor=#fff2cc;strokeColor=#d6b656;" parent="v-T4cHczStaTHuqniMII-1" vertex="1">
                    <mxGeometry x="120" y="360" width="140" height="70" as="geometry"/>
                </mxCell>
                <mxCell id="GKoyHZJA9tY0vmX-Lvy--1" value="Nouveau système de variable" style="ellipse;whiteSpace=wrap;html=1;fillColor=#dae8fc;strokeColor=#6c8ebf;" parent="v-T4cHczStaTHuqniMII-1" vertex="1">
                    <mxGeometry x="820" y="830" width="140" height="70" as="geometry"/>
                </mxCell>
                <mxCell id="GKoyHZJA9tY0vmX-Lvy--28" style="edgeStyle=none;rounded=0;orthogonalLoop=1;jettySize=auto;html=1;" parent="v-T4cHczStaTHuqniMII-1" source="v-T4cHczStaTHuqniMII-53" target="GKoyHZJA9tY0vmX-Lvy--7" edge="1">
                    <mxGeometry relative="1" as="geometry"/>
                </mxCell>
                <mxCell id="GKoyHZJA9tY0vmX-Lvy--3" value="Produit" style="ellipse;whiteSpace=wrap;html=1;fillColor=#fff2cc;strokeColor=#d6b656;" parent="v-T4cHczStaTHuqniMII-1" vertex="1">
                    <mxGeometry x="190" y="700" width="140" height="70" as="geometry"/>
                </mxCell>
                <mxCell id="GKoyHZJA9tY0vmX-Lvy--9" style="edgeStyle=none;rounded=0;orthogonalLoop=1;jettySize=auto;html=1;" parent="v-T4cHczStaTHuqniMII-1" source="GKoyHZJA9tY0vmX-Lvy--7" target="GKoyHZJA9tY0vmX-Lvy--8" edge="1">
                    <mxGeometry relative="1" as="geometry"/>
                </mxCell>
                <mxCell id="GKoyHZJA9tY0vmX-Lvy--7" value="Classe&lt;br&gt;(objet)" style="ellipse;whiteSpace=wrap;html=1;fillColor=#fff2cc;strokeColor=#d6b656;" parent="v-T4cHczStaTHuqniMII-1" vertex="1">
                    <mxGeometry x="-290" y="670" width="140" height="70" as="geometry"/>
                </mxCell>
                <mxCell id="GKoyHZJA9tY0vmX-Lvy--22" style="edgeStyle=none;rounded=0;orthogonalLoop=1;jettySize=auto;html=1;" parent="v-T4cHczStaTHuqniMII-1" source="GKoyHZJA9tY0vmX-Lvy--8" target="GKoyHZJA9tY0vmX-Lvy--20" edge="1">
                    <mxGeometry relative="1" as="geometry"/>
                </mxCell>
                <mxCell id="GKoyHZJA9tY0vmX-Lvy--43" style="edgeStyle=none;rounded=0;orthogonalLoop=1;jettySize=auto;html=1;" parent="v-T4cHczStaTHuqniMII-1" source="GKoyHZJA9tY0vmX-Lvy--8" target="GKoyHZJA9tY0vmX-Lvy--40" edge="1">
                    <mxGeometry relative="1" as="geometry"/>
                </mxCell>
                <mxCell id="GKoyHZJA9tY0vmX-Lvy--8" value="Champ[]" style="ellipse;whiteSpace=wrap;html=1;fillColor=#dae8fc;strokeColor=#6c8ebf;" parent="v-T4cHczStaTHuqniMII-1" vertex="1">
                    <mxGeometry x="-490" y="700" width="140" height="70" as="geometry"/>
                </mxCell>
                <mxCell id="GKoyHZJA9tY0vmX-Lvy--19" value="Booléen" style="ellipse;whiteSpace=wrap;html=1;fillColor=#dae8fc;strokeColor=#6c8ebf;" parent="v-T4cHczStaTHuqniMII-1" vertex="1">
                    <mxGeometry x="-800" y="870" width="140" height="70" as="geometry"/>
                </mxCell>
                <mxCell id="GKoyHZJA9tY0vmX-Lvy--23" style="edgeStyle=none;rounded=0;orthogonalLoop=1;jettySize=auto;html=1;" parent="v-T4cHczStaTHuqniMII-1" source="GKoyHZJA9tY0vmX-Lvy--20" target="GKoyHZJA9tY0vmX-Lvy--19" edge="1">
                    <mxGeometry relative="1" as="geometry"/>
                </mxCell>
                <mxCell id="GKoyHZJA9tY0vmX-Lvy--20" value="Filtre&lt;br&gt;(tel que ...)" style="ellipse;whiteSpace=wrap;html=1;fillColor=#d5e8d4;strokeColor=#82b366;" parent="v-T4cHczStaTHuqniMII-1" vertex="1">
                    <mxGeometry x="-690" y="780" width="140" height="70" as="geometry"/>
                </mxCell>
                <mxCell id="GKoyHZJA9tY0vmX-Lvy--30" style="edgeStyle=none;rounded=0;orthogonalLoop=1;jettySize=auto;html=1;" parent="v-T4cHczStaTHuqniMII-1" source="GKoyHZJA9tY0vmX-Lvy--32" target="GKoyHZJA9tY0vmX-Lvy--33" edge="1">
                    <mxGeometry relative="1" as="geometry"/>
                </mxCell>
                <mxCell id="GKoyHZJA9tY0vmX-Lvy--31" style="edgeStyle=none;rounded=0;orthogonalLoop=1;jettySize=auto;html=1;" parent="v-T4cHczStaTHuqniMII-1" source="GKoyHZJA9tY0vmX-Lvy--32" target="GKoyHZJA9tY0vmX-Lvy--35" edge="1">
                    <mxGeometry relative="1" as="geometry"/>
                </mxCell>
                <mxCell id="GKoyHZJA9tY0vmX-Lvy--32" value="Définition / assignation" style="ellipse;whiteSpace=wrap;html=1;fillColor=#dae8fc;strokeColor=#6c8ebf;" parent="v-T4cHczStaTHuqniMII-1" vertex="1">
                    <mxGeometry x="-270" y="890" width="140" height="70" as="geometry"/>
                </mxCell>
                <mxCell id="GKoyHZJA9tY0vmX-Lvy--33" value="Nouveau nom de variable" style="ellipse;whiteSpace=wrap;html=1;fillColor=#dae8fc;strokeColor=#6c8ebf;" parent="v-T4cHczStaTHuqniMII-1" vertex="1">
                    <mxGeometry x="-270" y="1040" width="140" height="70" as="geometry"/>
                </mxCell>
                <mxCell id="GKoyHZJA9tY0vmX-Lvy--35" value="Objet" style="ellipse;whiteSpace=wrap;html=1;fillColor=#dae8fc;strokeColor=#6c8ebf;" parent="v-T4cHczStaTHuqniMII-1" vertex="1">
                    <mxGeometry x="-460" y="1010" width="140" height="70" as="geometry"/>
                </mxCell>
                <mxCell id="GKoyHZJA9tY0vmX-Lvy--40" value="Nouveau nom de variable" style="ellipse;whiteSpace=wrap;html=1;fillColor=#dae8fc;strokeColor=#6c8ebf;" parent="v-T4cHczStaTHuqniMII-1" vertex="1">
                    <mxGeometry x="-680" y="660" width="140" height="70" as="geometry"/>
                </mxCell>
                <mxCell id="qiCFsd6ixKybRqq8ZLcc-2" style="edgeStyle=none;rounded=0;orthogonalLoop=1;jettySize=auto;html=1;" parent="v-T4cHczStaTHuqniMII-1" source="qiCFsd6ixKybRqq8ZLcc-0" target="qiCFsd6ixKybRqq8ZLcc-1" edge="1">
                    <mxGeometry relative="1" as="geometry"/>
                </mxCell>
                <mxCell id="qiCFsd6ixKybRqq8ZLcc-4" style="edgeStyle=none;rounded=0;orthogonalLoop=1;jettySize=auto;html=1;" parent="v-T4cHczStaTHuqniMII-1" source="qiCFsd6ixKybRqq8ZLcc-0" target="qiCFsd6ixKybRqq8ZLcc-3" edge="1">
                    <mxGeometry relative="1" as="geometry"/>
                </mxCell>
                <mxCell id="qiCFsd6ixKybRqq8ZLcc-0" value="Utilisation / inclusion" style="ellipse;whiteSpace=wrap;html=1;fillColor=#f8cecc;strokeColor=#b85450;" parent="v-T4cHczStaTHuqniMII-1" vertex="1">
                    <mxGeometry x="-730" y="435" width="140" height="70" as="geometry"/>
                </mxCell>
                <mxCell id="qiCFsd6ixKybRqq8ZLcc-1" value="Nom" style="ellipse;whiteSpace=wrap;html=1;fillColor=#dae8fc;strokeColor=#6c8ebf;" parent="v-T4cHczStaTHuqniMII-1" vertex="1">
                    <mxGeometry x="-530" y="370" width="140" height="70" as="geometry"/>
                </mxCell>
                <mxCell id="qiCFsd6ixKybRqq8ZLcc-3" value="Adresse" style="ellipse;whiteSpace=wrap;html=1;fillColor=#dae8fc;strokeColor=#6c8ebf;" parent="v-T4cHczStaTHuqniMII-1" vertex="1">
                    <mxGeometry x="-520" y="490" width="140" height="70" as="geometry"/>
                </mxCell>
                <mxCell id="vdfDJZwboIKBOKVHzna_-0" value="&lt;div style=&quot;text-align: justify&quot;&gt;&lt;div&gt;&lt;b style=&quot;font-size: 24px&quot;&gt;Objets standards&lt;/b&gt;&lt;/div&gt;&lt;div&gt;&lt;br&gt;&lt;/div&gt;&lt;div&gt;&lt;ul&gt;&lt;li&gt;Séquence&lt;/li&gt;&lt;li&gt;Opérateurs logiques : non et ou&lt;/li&gt;&lt;li&gt;Implication et équivalence&lt;/li&gt;&lt;li&gt;Booléens&lt;/li&gt;&lt;li&gt;Egalité de référence&lt;/li&gt;&lt;li&gt;Opérations ensemblistes usuelles : appartenance, inclusion, réunion, intersection, privation, produit cartésien&lt;/li&gt;&lt;li&gt;Nombres : entiers naturels, entiers relatifs, rationnels, réels, complexes, flottants...&lt;/li&gt;&lt;li&gt;Opérations mathématiques usuelles&lt;/li&gt;&lt;li&gt;Fonctions mathématiques usuelles&lt;/li&gt;&lt;li&gt;Formal Language&lt;/li&gt;&lt;/ul&gt;&lt;/div&gt;&lt;/div&gt;" style="shape=note;whiteSpace=wrap;html=1;backgroundOutline=1;darkOpacity=0.05;fillColor=#fff2cc;strokeColor=#d6b656;align=left;verticalAlign=top;" parent="v-T4cHczStaTHuqniMII-1" vertex="1">
                    <mxGeometry x="1120" y="645" width="440" height="380" as="geometry"/>
                </mxCell>
                <mxCell id="X1EqS7hE71sx85p6JkYJ-0" value="Ensemble" style="ellipse;whiteSpace=wrap;html=1;fillColor=#fff2cc;strokeColor=#d6b656;" parent="v-T4cHczStaTHuqniMII-1" vertex="1">
                    <mxGeometry x="450" y="690" width="140" height="70" as="geometry"/>
                </mxCell>
            </root>
        </mxGraphModel>
    </diagram>
    <diagram id="V_l9NjLLr85R7e2Uh_4M" name="ODP">
        <mxGraphModel dx="1118" dy="570" grid="1" gridSize="10" guides="1" tooltips="1" connect="1" arrows="1" fold="1" page="1" pageScale="1" pageWidth="827" pageHeight="1169" math="0" shadow="0">
            <root>
                <mxCell id="UH5P8eZUl7aSeUXWClkb-0"/>
                <mxCell id="UH5P8eZUl7aSeUXWClkb-1" parent="UH5P8eZUl7aSeUXWClkb-0"/>
                <mxCell id="EtXoD0QeYAFOBHd-c1zj-0" value="&lt;font style=&quot;font-size: 24px&quot;&gt;Online Data Protocol&lt;/font&gt;" style="shape=note;whiteSpace=wrap;html=1;backgroundOutline=1;darkOpacity=0.05;fillColor=#f8cecc;strokeColor=#b85450;" parent="UH5P8eZUl7aSeUXWClkb-1" vertex="1">
                    <mxGeometry x="30" y="20" width="260" height="130" as="geometry"/>
                </mxCell>
                <mxCell id="DF3NQeOslVsX1UX01-3N-14" value="Delete" style="swimlane;fontStyle=0;childLayout=stackLayout;horizontal=1;startSize=26;fillColor=#fff2cc;horizontalStack=0;resizeParent=1;resizeParentMax=0;resizeLast=0;collapsible=1;marginBottom=0;strokeColor=#d6b656;" parent="UH5P8eZUl7aSeUXWClkb-1" vertex="1">
                    <mxGeometry x="640" y="360" width="120" height="120" as="geometry">
                        <mxRectangle x="500" y="100" width="80" height="26" as="alternateBounds"/>
                    </mxGeometry>
                </mxCell>
                <mxCell id="DF3NQeOslVsX1UX01-3N-15" value="[&#10;    path1,&#10;    path2,&#10;    ...&#10;]" style="text;strokeColor=#d6b656;fillColor=#fff2cc;align=left;verticalAlign=top;spacingLeft=4;spacingRight=4;overflow=hidden;rotatable=0;points=[[0,0.5],[1,0.5]];portConstraint=eastwest;" parent="DF3NQeOslVsX1UX01-3N-14" vertex="1">
                    <mxGeometry y="26" width="120" height="94" as="geometry"/>
                </mxCell>
                <mxCell id="DF3NQeOslVsX1UX01-3N-10" value="UnGet" style="swimlane;fontStyle=0;childLayout=stackLayout;horizontal=1;startSize=26;fillColor=#fff2cc;horizontalStack=0;resizeParent=1;resizeParentMax=0;resizeLast=0;collapsible=1;marginBottom=0;strokeColor=#d6b656;" parent="UH5P8eZUl7aSeUXWClkb-1" vertex="1">
                    <mxGeometry x="240" y="360" width="120" height="120" as="geometry">
                        <mxRectangle x="500" y="100" width="80" height="26" as="alternateBounds"/>
                    </mxGeometry>
                </mxCell>
                <mxCell id="DF3NQeOslVsX1UX01-3N-11" value="[&#10;    path1,&#10;    path2,&#10;    ...&#10;]" style="text;strokeColor=#d6b656;fillColor=#fff2cc;align=left;verticalAlign=top;spacingLeft=4;spacingRight=4;overflow=hidden;rotatable=0;points=[[0,0.5],[1,0.5]];portConstraint=eastwest;" parent="DF3NQeOslVsX1UX01-3N-10" vertex="1">
                    <mxGeometry y="26" width="120" height="94" as="geometry"/>
                </mxCell>
                <mxCell id="DF3NQeOslVsX1UX01-3N-12" value="Set" style="swimlane;fontStyle=0;childLayout=stackLayout;horizontal=1;startSize=26;fillColor=#fff2cc;horizontalStack=0;resizeParent=1;resizeParentMax=0;resizeLast=0;collapsible=1;marginBottom=0;strokeColor=#d6b656;" parent="UH5P8eZUl7aSeUXWClkb-1" vertex="1">
                    <mxGeometry x="440" y="360" width="120" height="180" as="geometry">
                        <mxRectangle x="500" y="100" width="80" height="26" as="alternateBounds"/>
                    </mxGeometry>
                </mxCell>
                <mxCell id="DF3NQeOslVsX1UX01-3N-13" value="{&#10;    path1: data1,&#10;    path2: {&#10;        index1: data1',&#10;        index2: data2&#10;&#10;    },&#10;    ...&#10;}" style="text;strokeColor=#d6b656;fillColor=#fff2cc;align=left;verticalAlign=top;spacingLeft=4;spacingRight=4;overflow=hidden;rotatable=0;points=[[0,0.5],[1,0.5]];portConstraint=eastwest;" parent="DF3NQeOslVsX1UX01-3N-12" vertex="1">
                    <mxGeometry y="26" width="120" height="154" as="geometry"/>
                </mxCell>
                <mxCell id="DF3NQeOslVsX1UX01-3N-5" value="Get" style="swimlane;fontStyle=0;childLayout=stackLayout;horizontal=1;startSize=26;fillColor=#fff2cc;horizontalStack=0;resizeParent=1;resizeParentMax=0;resizeLast=0;collapsible=1;marginBottom=0;strokeColor=#d6b656;" parent="UH5P8eZUl7aSeUXWClkb-1" vertex="1">
                    <mxGeometry x="40" y="360" width="120" height="120" as="geometry">
                        <mxRectangle x="500" y="100" width="80" height="26" as="alternateBounds"/>
                    </mxGeometry>
                </mxCell>
                <mxCell id="DF3NQeOslVsX1UX01-3N-6" value="{&#10;    path1: hash1,&#10;    path2: &quot;&quot;,&#10;    ...&#10;}" style="text;strokeColor=#d6b656;fillColor=#fff2cc;align=left;verticalAlign=top;spacingLeft=4;spacingRight=4;overflow=hidden;rotatable=0;points=[[0,0.5],[1,0.5]];portConstraint=eastwest;" parent="DF3NQeOslVsX1UX01-3N-5" vertex="1">
                    <mxGeometry y="26" width="120" height="94" as="geometry"/>
                </mxCell>
                <mxCell id="PAZCJCYrDLdM_au2Yo1A-0" value="ODP" style="swimlane;fontStyle=0;childLayout=stackLayout;horizontal=1;startSize=26;fillColor=#fff2cc;horizontalStack=0;resizeParent=1;resizeParentMax=0;resizeLast=0;collapsible=1;marginBottom=0;strokeColor=#d6b656;" parent="UH5P8eZUl7aSeUXWClkb-1" vertex="1">
                    <mxGeometry x="280" y="180" width="200" height="122" as="geometry">
                        <mxRectangle x="500" y="100" width="80" height="26" as="alternateBounds"/>
                    </mxGeometry>
                </mxCell>
                <mxCell id="PAZCJCYrDLdM_au2Yo1A-1" value="+ get(Get)" style="text;strokeColor=#d6b656;fillColor=#fff2cc;align=left;verticalAlign=top;spacingLeft=4;spacingRight=4;overflow=hidden;rotatable=0;points=[[0,0.5],[1,0.5]];portConstraint=eastwest;" parent="PAZCJCYrDLdM_au2Yo1A-0" vertex="1">
                    <mxGeometry y="26" width="200" height="24" as="geometry"/>
                </mxCell>
                <mxCell id="K44ztqwTnBU6JJoOJuPu-3" value="+ unget(UnGet)" style="text;strokeColor=#d6b656;fillColor=#fff2cc;align=left;verticalAlign=top;spacingLeft=4;spacingRight=4;overflow=hidden;rotatable=0;points=[[0,0.5],[1,0.5]];portConstraint=eastwest;" parent="PAZCJCYrDLdM_au2Yo1A-0" vertex="1">
                    <mxGeometry y="50" width="200" height="24" as="geometry"/>
                </mxCell>
                <mxCell id="K44ztqwTnBU6JJoOJuPu-4" value="+ set(Set)" style="text;strokeColor=#d6b656;fillColor=#fff2cc;align=left;verticalAlign=top;spacingLeft=4;spacingRight=4;overflow=hidden;rotatable=0;points=[[0,0.5],[1,0.5]];portConstraint=eastwest;" parent="PAZCJCYrDLdM_au2Yo1A-0" vertex="1">
                    <mxGeometry y="74" width="200" height="24" as="geometry"/>
                </mxCell>
                <mxCell id="K44ztqwTnBU6JJoOJuPu-5" value="+ delete(Delete)" style="text;strokeColor=#d6b656;fillColor=#fff2cc;align=left;verticalAlign=top;spacingLeft=4;spacingRight=4;overflow=hidden;rotatable=0;points=[[0,0.5],[1,0.5]];portConstraint=eastwest;" parent="PAZCJCYrDLdM_au2Yo1A-0" vertex="1">
                    <mxGeometry y="98" width="200" height="24" as="geometry"/>
                </mxCell>
            </root>
        </mxGraphModel>
    </diagram>
    <diagram id="WF8cTKXz_o5KtCRZTKww" name="DataManager">
        <mxGraphModel dx="348" dy="798" grid="1" gridSize="10" guides="1" tooltips="1" connect="1" arrows="1" fold="1" page="1" pageScale="1" pageWidth="827" pageHeight="1169" math="0" shadow="0">
            <root>
                <mxCell id="Pk3Y0sDnsGEQqYOogz7k-0"/>
                <mxCell id="Pk3Y0sDnsGEQqYOogz7k-1" parent="Pk3Y0sDnsGEQqYOogz7k-0"/>
                <mxCell id="-yMDUEkYc6U7FfnnZ4ZD-0" value="DataManager" style="ellipse;whiteSpace=wrap;html=1;shadow=0;fillColor=#f8cecc;fontColor=#000000;strokeColor=#b85450;" parent="Pk3Y0sDnsGEQqYOogz7k-1" vertex="1">
                    <mxGeometry x="1171" y="40" width="140" height="70" as="geometry"/>
                </mxCell>
                <mxCell id="-yMDUEkYc6U7FfnnZ4ZD-2" style="rounded=0;orthogonalLoop=1;jettySize=auto;html=1;" parent="Pk3Y0sDnsGEQqYOogz7k-1" source="-yMDUEkYc6U7FfnnZ4ZD-0" target="-yMDUEkYc6U7FfnnZ4ZD-12" edge="1">
                    <mxGeometry relative="1" as="geometry"/>
                </mxCell>
                <mxCell id="-yMDUEkYc6U7FfnnZ4ZD-3" value="Other App" style="ellipse;whiteSpace=wrap;html=1;shadow=0;fillColor=#fff2cc;fontColor=#000000;strokeColor=#d6b656;" parent="Pk3Y0sDnsGEQqYOogz7k-1" vertex="1">
                    <mxGeometry x="1420" y="370" width="140" height="70" as="geometry"/>
                </mxCell>
                <mxCell id="-yMDUEkYc6U7FfnnZ4ZD-8" style="edgeStyle=none;rounded=0;html=1;startArrow=none;startFill=0;jettySize=auto;orthogonalLoop=1;fontColor=#000000;" parent="Pk3Y0sDnsGEQqYOogz7k-1" source="-yMDUEkYc6U7FfnnZ4ZD-0" target="-yMDUEkYc6U7FfnnZ4ZD-3" edge="1">
                    <mxGeometry relative="1" as="geometry">
                        <mxPoint x="1402.165020314972" y="358.36181168292205" as="sourcePoint"/>
                    </mxGeometry>
                </mxCell>
                <mxCell id="-yMDUEkYc6U7FfnnZ4ZD-9" style="edgeStyle=none;rounded=0;html=1;startArrow=none;startFill=0;jettySize=auto;orthogonalLoop=1;fontColor=#000000;" parent="Pk3Y0sDnsGEQqYOogz7k-1" source="-yMDUEkYc6U7FfnnZ4ZD-0" target="-yMDUEkYc6U7FfnnZ4ZD-17" edge="1">
                    <mxGeometry relative="1" as="geometry"/>
                </mxCell>
                <mxCell id="-yMDUEkYc6U7FfnnZ4ZD-10" value="ODP" style="ellipse;whiteSpace=wrap;html=1;shadow=0;fillColor=#fff2cc;strokeColor=#d6b656;" parent="Pk3Y0sDnsGEQqYOogz7k-1" vertex="1">
                    <mxGeometry x="890" y="290" width="140" height="70" as="geometry"/>
                </mxCell>
                <mxCell id="-yMDUEkYc6U7FfnnZ4ZD-12" value="HTML" style="ellipse;whiteSpace=wrap;html=1;shadow=0;fillColor=#fff2cc;strokeColor=#d6b656;" parent="Pk3Y0sDnsGEQqYOogz7k-1" vertex="1">
                    <mxGeometry x="1000" y="390" width="140" height="70" as="geometry"/>
                </mxCell>
                <mxCell id="-yMDUEkYc6U7FfnnZ4ZD-13" style="edgeStyle=none;rounded=0;html=1;startArrow=none;startFill=0;jettySize=auto;orthogonalLoop=1;fontColor=#000000;" parent="Pk3Y0sDnsGEQqYOogz7k-1" source="-yMDUEkYc6U7FfnnZ4ZD-0" target="-yMDUEkYc6U7FfnnZ4ZD-10" edge="1">
                    <mxGeometry relative="1" as="geometry">
                        <mxPoint x="1225.9997222994298" y="459.07348267471116" as="sourcePoint"/>
                    </mxGeometry>
                </mxCell>
                <mxCell id="-yMDUEkYc6U7FfnnZ4ZD-17" value="Stored in Cache" style="ellipse;whiteSpace=wrap;html=1;shadow=0;fillColor=#d5e8d4;strokeColor=#82b366;" parent="Pk3Y0sDnsGEQqYOogz7k-1" vertex="1">
                    <mxGeometry x="910" y="70" width="140" height="70" as="geometry"/>
                </mxCell>
                <mxCell id="-yMDUEkYc6U7FfnnZ4ZD-19" value="Encryption / Decryption" style="ellipse;whiteSpace=wrap;html=1;shadow=0;fillColor=#d5e8d4;fontColor=#000000;strokeColor=#82b366;" parent="Pk3Y0sDnsGEQqYOogz7k-1" vertex="1">
                    <mxGeometry x="1470" y="60" width="140" height="70" as="geometry"/>
                </mxCell>
                <mxCell id="-yMDUEkYc6U7FfnnZ4ZD-20" style="edgeStyle=none;rounded=0;html=1;startArrow=none;startFill=0;jettySize=auto;orthogonalLoop=1;fontColor=#000000;" parent="Pk3Y0sDnsGEQqYOogz7k-1" source="-yMDUEkYc6U7FfnnZ4ZD-0" target="-yMDUEkYc6U7FfnnZ4ZD-19" edge="1">
                    <mxGeometry relative="1" as="geometry"/>
                </mxCell>
                <mxCell id="-yMDUEkYc6U7FfnnZ4ZD-21" value="FTP" style="ellipse;whiteSpace=wrap;html=1;shadow=0;fillColor=#fff2cc;strokeColor=#d6b656;" parent="Pk3Y0sDnsGEQqYOogz7k-1" vertex="1">
                    <mxGeometry x="1230" y="400" width="140" height="70" as="geometry"/>
                </mxCell>
                <mxCell id="-yMDUEkYc6U7FfnnZ4ZD-22" style="rounded=0;html=1;startArrow=none;startFill=0;jettySize=auto;orthogonalLoop=1;fontColor=#000000;" parent="Pk3Y0sDnsGEQqYOogz7k-1" source="-yMDUEkYc6U7FfnnZ4ZD-0" target="-yMDUEkYc6U7FfnnZ4ZD-21" edge="1">
                    <mxGeometry relative="1" as="geometry"/>
                </mxCell>
            </root>
        </mxGraphModel>
    </diagram>
    <diagram id="49TnV0c6ifiZeNyL8bGE" name="AppManager">
        <mxGraphModel dx="1175" dy="798" grid="1" gridSize="10" guides="1" tooltips="1" connect="1" arrows="1" fold="1" page="1" pageScale="1" pageWidth="827" pageHeight="1169" math="0" shadow="0">
            <root>
                <mxCell id="rX05nqekZC7pyH_LNASz-0"/>
                <mxCell id="rX05nqekZC7pyH_LNASz-1" parent="rX05nqekZC7pyH_LNASz-0"/>
                <mxCell id="_uSwUZgyzYdsKtZDyFy9-1" style="edgeStyle=none;rounded=0;orthogonalLoop=1;jettySize=auto;html=1;" parent="rX05nqekZC7pyH_LNASz-1" source="a-PLmxCelXJSYvkqQ847-0" target="_uSwUZgyzYdsKtZDyFy9-0" edge="1">
                    <mxGeometry relative="1" as="geometry"/>
                </mxCell>
                <mxCell id="a-PLmxCelXJSYvkqQ847-0" value="AppManager" style="ellipse;whiteSpace=wrap;html=1;shadow=0;fillColor=#f8cecc;fontColor=#000000;strokeColor=#b85450;" parent="rX05nqekZC7pyH_LNASz-1" vertex="1">
                    <mxGeometry x="730" y="493.5" width="140" height="70" as="geometry"/>
                </mxCell>
                <mxCell id="a-PLmxCelXJSYvkqQ847-1" value="Data" style="ellipse;whiteSpace=wrap;html=1;fillColor=#dae8fc;fontColor=#000000;strokeColor=#6c8ebf;" parent="rX05nqekZC7pyH_LNASz-1" vertex="1">
                    <mxGeometry x="1060" y="400" width="170" height="70" as="geometry"/>
                </mxCell>
                <mxCell id="a-PLmxCelXJSYvkqQ847-2" value="Permissions&lt;br&gt;" style="ellipse;whiteSpace=wrap;html=1;fillColor=#dae8fc;strokeColor=#6c8ebf;" parent="rX05nqekZC7pyH_LNASz-1" vertex="1">
                    <mxGeometry x="560" y="395" width="170" height="70" as="geometry"/>
                </mxCell>
                <mxCell id="a-PLmxCelXJSYvkqQ847-3" style="edgeStyle=none;rounded=0;html=1;startArrow=none;startFill=0;jettySize=auto;orthogonalLoop=1;strokeColor=#000000;fontColor=#000000;" parent="rX05nqekZC7pyH_LNASz-1" source="a-PLmxCelXJSYvkqQ847-0" target="a-PLmxCelXJSYvkqQ847-2" edge="1">
                    <mxGeometry relative="1" as="geometry"/>
                </mxCell>
                <mxCell id="a-PLmxCelXJSYvkqQ847-4" style="rounded=0;orthogonalLoop=1;jettySize=auto;html=1;" parent="rX05nqekZC7pyH_LNASz-1" source="a-PLmxCelXJSYvkqQ847-5" target="a-PLmxCelXJSYvkqQ847-20" edge="1">
                    <mxGeometry relative="1" as="geometry"/>
                </mxCell>
                <mxCell id="ww1bza0KaRBGcjdTDMza-1" style="rounded=0;orthogonalLoop=1;jettySize=auto;html=1;" parent="rX05nqekZC7pyH_LNASz-1" source="a-PLmxCelXJSYvkqQ847-5" target="ww1bza0KaRBGcjdTDMza-0" edge="1">
                    <mxGeometry relative="1" as="geometry"/>
                </mxCell>
                <mxCell id="a-PLmxCelXJSYvkqQ847-5" value="APIs" style="ellipse;whiteSpace=wrap;html=1;fillColor=#d5e8d4;strokeColor=#82b366;" parent="rX05nqekZC7pyH_LNASz-1" vertex="1">
                    <mxGeometry x="920" y="500" width="170" height="70" as="geometry"/>
                </mxCell>
                <mxCell id="a-PLmxCelXJSYvkqQ847-6" style="edgeStyle=none;rounded=0;html=1;startArrow=none;startFill=0;jettySize=auto;orthogonalLoop=1;fontColor=#000000;" parent="rX05nqekZC7pyH_LNASz-1" source="a-PLmxCelXJSYvkqQ847-0" target="a-PLmxCelXJSYvkqQ847-5" edge="1">
                    <mxGeometry relative="1" as="geometry"/>
                </mxCell>
                <mxCell id="a-PLmxCelXJSYvkqQ847-7" style="edgeStyle=none;rounded=0;html=1;startArrow=none;startFill=0;jettySize=auto;orthogonalLoop=1;fontColor=#000000;" parent="rX05nqekZC7pyH_LNASz-1" source="a-PLmxCelXJSYvkqQ847-5" target="a-PLmxCelXJSYvkqQ847-1" edge="1">
                    <mxGeometry relative="1" as="geometry"/>
                </mxCell>
                <mxCell id="a-PLmxCelXJSYvkqQ847-8" value="GUI" style="ellipse;whiteSpace=wrap;html=1;fillColor=#dae8fc;fontColor=#000000;strokeColor=#6c8ebf;" parent="rX05nqekZC7pyH_LNASz-1" vertex="1">
                    <mxGeometry x="1150" y="500" width="170" height="70" as="geometry"/>
                </mxCell>
                <mxCell id="a-PLmxCelXJSYvkqQ847-9" style="edgeStyle=none;rounded=0;html=1;startArrow=none;startFill=0;jettySize=auto;orthogonalLoop=1;fontColor=#000000;" parent="rX05nqekZC7pyH_LNASz-1" source="a-PLmxCelXJSYvkqQ847-5" target="a-PLmxCelXJSYvkqQ847-8" edge="1">
                    <mxGeometry relative="1" as="geometry"/>
                </mxCell>
                <mxCell id="a-PLmxCelXJSYvkqQ847-10" value="Security App&lt;br&gt;" style="ellipse;whiteSpace=wrap;html=1;fillColor=#fff2cc;strokeColor=#d6b656;" parent="rX05nqekZC7pyH_LNASz-1" vertex="1">
                    <mxGeometry x="510" y="260" width="170" height="70" as="geometry"/>
                </mxCell>
                <mxCell id="a-PLmxCelXJSYvkqQ847-11" style="edgeStyle=none;rounded=0;html=1;entryX=0.5;entryY=1;startArrow=none;startFill=0;jettySize=auto;orthogonalLoop=1;fontColor=#000000;" parent="rX05nqekZC7pyH_LNASz-1" source="a-PLmxCelXJSYvkqQ847-2" target="a-PLmxCelXJSYvkqQ847-10" edge="1">
                    <mxGeometry relative="1" as="geometry"/>
                </mxCell>
                <mxCell id="a-PLmxCelXJSYvkqQ847-12" value="Manual authorization&lt;br&gt;" style="ellipse;whiteSpace=wrap;html=1;fillColor=#fff2cc;strokeColor=#d6b656;" parent="rX05nqekZC7pyH_LNASz-1" vertex="1">
                    <mxGeometry x="350" y="360" width="170" height="70" as="geometry"/>
                </mxCell>
                <mxCell id="a-PLmxCelXJSYvkqQ847-13" style="edgeStyle=none;rounded=0;html=1;startArrow=none;startFill=0;jettySize=auto;orthogonalLoop=1;fontColor=#000000;" parent="rX05nqekZC7pyH_LNASz-1" source="a-PLmxCelXJSYvkqQ847-2" target="a-PLmxCelXJSYvkqQ847-12" edge="1">
                    <mxGeometry relative="1" as="geometry">
                        <mxPoint x="490" y="375" as="targetPoint"/>
                    </mxGeometry>
                </mxCell>
                <mxCell id="a-PLmxCelXJSYvkqQ847-14" value="App types" style="ellipse;whiteSpace=wrap;html=1;fillColor=#dae8fc;strokeColor=#6c8ebf;" parent="rX05nqekZC7pyH_LNASz-1" vertex="1">
                    <mxGeometry x="520" y="530" width="170" height="70" as="geometry"/>
                </mxCell>
                <mxCell id="a-PLmxCelXJSYvkqQ847-15" style="rounded=0;html=1;startArrow=none;startFill=0;jettySize=auto;orthogonalLoop=1;strokeColor=#000000;fontColor=#000000;" parent="rX05nqekZC7pyH_LNASz-1" source="a-PLmxCelXJSYvkqQ847-0" target="a-PLmxCelXJSYvkqQ847-14" edge="1">
                    <mxGeometry relative="1" as="geometry"/>
                </mxCell>
                <mxCell id="B5IrCnFHRbCQaCrZ68_w-3" style="edgeStyle=none;rounded=0;orthogonalLoop=1;jettySize=auto;html=1;" parent="rX05nqekZC7pyH_LNASz-1" source="a-PLmxCelXJSYvkqQ847-16" target="B5IrCnFHRbCQaCrZ68_w-2" edge="1">
                    <mxGeometry relative="1" as="geometry"/>
                </mxCell>
                <mxCell id="B5IrCnFHRbCQaCrZ68_w-5" style="edgeStyle=none;rounded=0;orthogonalLoop=1;jettySize=auto;html=1;" parent="rX05nqekZC7pyH_LNASz-1" source="a-PLmxCelXJSYvkqQ847-16" target="B5IrCnFHRbCQaCrZ68_w-4" edge="1">
                    <mxGeometry relative="1" as="geometry"/>
                </mxCell>
                <mxCell id="a-PLmxCelXJSYvkqQ847-16" value="Formal Language" style="ellipse;whiteSpace=wrap;html=1;fillColor=#fff2cc;strokeColor=#d6b656;" parent="rX05nqekZC7pyH_LNASz-1" vertex="1">
                    <mxGeometry x="430" y="650" width="170" height="70" as="geometry"/>
                </mxCell>
                <mxCell id="a-PLmxCelXJSYvkqQ847-17" style="edgeStyle=none;rounded=0;html=1;startArrow=none;startFill=0;jettySize=auto;orthogonalLoop=1;fontColor=#000000;" parent="rX05nqekZC7pyH_LNASz-1" source="a-PLmxCelXJSYvkqQ847-14" target="a-PLmxCelXJSYvkqQ847-28" edge="1">
                    <mxGeometry relative="1" as="geometry">
                        <mxPoint x="467.5990648352588" y="607.2599064835258" as="targetPoint"/>
                    </mxGeometry>
                </mxCell>
                <mxCell id="a-PLmxCelXJSYvkqQ847-18" style="edgeStyle=none;rounded=0;html=1;startArrow=none;startFill=0;jettySize=auto;orthogonalLoop=1;fontColor=#000000;" parent="rX05nqekZC7pyH_LNASz-1" source="a-PLmxCelXJSYvkqQ847-14" target="a-PLmxCelXJSYvkqQ847-16" edge="1">
                    <mxGeometry relative="1" as="geometry">
                        <mxPoint x="875" y="860" as="targetPoint"/>
                    </mxGeometry>
                </mxCell>
                <mxCell id="a-PLmxCelXJSYvkqQ847-19" style="edgeStyle=none;rounded=0;orthogonalLoop=1;jettySize=auto;html=1;" parent="rX05nqekZC7pyH_LNASz-1" source="a-PLmxCelXJSYvkqQ847-20" target="a-PLmxCelXJSYvkqQ847-27" edge="1">
                    <mxGeometry relative="1" as="geometry"/>
                </mxCell>
                <mxCell id="a-PLmxCelXJSYvkqQ847-20" value="Request" style="ellipse;whiteSpace=wrap;html=1;fillColor=#dae8fc;strokeColor=#6c8ebf;" parent="rX05nqekZC7pyH_LNASz-1" vertex="1">
                    <mxGeometry x="1030" y="610" width="170" height="70" as="geometry"/>
                </mxCell>
                <mxCell id="a-PLmxCelXJSYvkqQ847-23" value="Auto finder&lt;br&gt;" style="ellipse;whiteSpace=wrap;html=1;fillColor=#fff2cc;strokeColor=#d6b656;" parent="rX05nqekZC7pyH_LNASz-1" vertex="1">
                    <mxGeometry x="1240" y="590" width="170" height="70" as="geometry"/>
                </mxCell>
                <mxCell id="a-PLmxCelXJSYvkqQ847-24" style="edgeStyle=none;rounded=0;html=1;startArrow=none;startFill=0;jettySize=auto;orthogonalLoop=1;fontColor=#000000;" parent="rX05nqekZC7pyH_LNASz-1" source="a-PLmxCelXJSYvkqQ847-20" target="a-PLmxCelXJSYvkqQ847-23" edge="1">
                    <mxGeometry relative="1" as="geometry">
                        <mxPoint x="470" y="595" as="targetPoint"/>
                    </mxGeometry>
                </mxCell>
                <mxCell id="a-PLmxCelXJSYvkqQ847-25" value="Request to an App&lt;br&gt;" style="ellipse;whiteSpace=wrap;html=1;fillColor=#fff2cc;strokeColor=#d6b656;" parent="rX05nqekZC7pyH_LNASz-1" vertex="1">
                    <mxGeometry x="1020" y="740" width="170" height="70" as="geometry"/>
                </mxCell>
                <mxCell id="a-PLmxCelXJSYvkqQ847-26" style="edgeStyle=none;rounded=0;html=1;startArrow=none;startFill=0;jettySize=auto;orthogonalLoop=1;fontColor=#000000;" parent="rX05nqekZC7pyH_LNASz-1" source="a-PLmxCelXJSYvkqQ847-20" target="a-PLmxCelXJSYvkqQ847-25" edge="1">
                    <mxGeometry relative="1" as="geometry">
                        <mxPoint x="505.10407640085646" y="725.2512626584708" as="targetPoint"/>
                    </mxGeometry>
                </mxCell>
                <mxCell id="a-PLmxCelXJSYvkqQ847-27" value="Request to a server" style="ellipse;whiteSpace=wrap;html=1;fillColor=#fff2cc;strokeColor=#d6b656;" parent="rX05nqekZC7pyH_LNASz-1" vertex="1">
                    <mxGeometry x="1200" y="690" width="170" height="70" as="geometry"/>
                </mxCell>
                <mxCell id="a-PLmxCelXJSYvkqQ847-28" value="Other languages" style="ellipse;whiteSpace=wrap;html=1;fillColor=#fff2cc;strokeColor=#d6b656;" parent="rX05nqekZC7pyH_LNASz-1" vertex="1">
                    <mxGeometry x="270" y="520" width="170" height="70" as="geometry"/>
                </mxCell>
                <mxCell id="B5IrCnFHRbCQaCrZ68_w-2" value="Compiled" style="ellipse;whiteSpace=wrap;html=1;fillColor=#fff2cc;strokeColor=#d6b656;" parent="rX05nqekZC7pyH_LNASz-1" vertex="1">
                    <mxGeometry x="244" y="740" width="170" height="70" as="geometry"/>
                </mxCell>
                <mxCell id="B5IrCnFHRbCQaCrZ68_w-4" value="Source" style="ellipse;whiteSpace=wrap;html=1;fillColor=#fff2cc;strokeColor=#d6b656;" parent="rX05nqekZC7pyH_LNASz-1" vertex="1">
                    <mxGeometry x="450" y="810" width="170" height="70" as="geometry"/>
                </mxCell>
                <mxCell id="ww1bza0KaRBGcjdTDMza-0" value="Event" style="ellipse;whiteSpace=wrap;html=1;fillColor=#dae8fc;fontColor=#000000;strokeColor=#6c8ebf;" parent="rX05nqekZC7pyH_LNASz-1" vertex="1">
                    <mxGeometry x="870" y="380" width="170" height="70" as="geometry"/>
                </mxCell>
                <mxCell id="_uSwUZgyzYdsKtZDyFy9-0" value="Response" style="ellipse;whiteSpace=wrap;html=1;fillColor=#dae8fc;strokeColor=#6c8ebf;" parent="rX05nqekZC7pyH_LNASz-1" vertex="1">
                    <mxGeometry x="740" y="610" width="170" height="70" as="geometry"/>
                </mxCell>
            </root>
        </mxGraphModel>
    </diagram>
    <diagram id="veBEU8i3NO6MpNnZHCR-" name="EncryptionModule">
        <mxGraphModel dx="1175" dy="798" grid="1" gridSize="10" guides="1" tooltips="1" connect="1" arrows="1" fold="1" page="1" pageScale="1" pageWidth="827" pageHeight="1169" math="0" shadow="0">
            <root>
                <mxCell id="DFyGhb6JVYN7RhWKaapj-0"/>
                <mxCell id="DFyGhb6JVYN7RhWKaapj-1" parent="DFyGhb6JVYN7RhWKaapj-0"/>
                <mxCell id="M4--a1Le92PXE-c29II8-0" style="edgeStyle=none;rounded=0;orthogonalLoop=1;jettySize=auto;html=1;" parent="DFyGhb6JVYN7RhWKaapj-1" source="DFyGhb6JVYN7RhWKaapj-2" target="DFyGhb6JVYN7RhWKaapj-13" edge="1">
                    <mxGeometry relative="1" as="geometry"/>
                </mxCell>
                <mxCell id="DFyGhb6JVYN7RhWKaapj-2" value="KeysBox" style="ellipse;whiteSpace=wrap;html=1;shadow=0;fillColor=#f8cecc;fontColor=#000000;strokeColor=#b85450;" parent="DFyGhb6JVYN7RhWKaapj-1" vertex="1">
                    <mxGeometry x="510" y="260" width="140" height="70" as="geometry"/>
                </mxCell>
                <mxCell id="BXCcWnmFFv5htV1o1z1x-0" style="rounded=0;orthogonalLoop=1;jettySize=auto;html=1;" parent="DFyGhb6JVYN7RhWKaapj-1" source="DFyGhb6JVYN7RhWKaapj-5" target="DFyGhb6JVYN7RhWKaapj-2" edge="1">
                    <mxGeometry relative="1" as="geometry"/>
                </mxCell>
                <mxCell id="DFyGhb6JVYN7RhWKaapj-5" value="Encrypted by user's password" style="ellipse;whiteSpace=wrap;html=1;shadow=0;fillColor=#d5e8d4;strokeColor=#82b366;" parent="DFyGhb6JVYN7RhWKaapj-1" vertex="1">
                    <mxGeometry x="570" y="80" width="140" height="70" as="geometry"/>
                </mxCell>
                <mxCell id="DFyGhb6JVYN7RhWKaapj-7" value="Symmetrical keys" style="ellipse;whiteSpace=wrap;html=1;shadow=0;fillColor=#dae8fc;strokeColor=#6c8ebf;" parent="DFyGhb6JVYN7RhWKaapj-1" vertex="1">
                    <mxGeometry x="650" y="520" width="140" height="70" as="geometry"/>
                </mxCell>
                <mxCell id="DFyGhb6JVYN7RhWKaapj-8" value="Asymmetric keys with public to encryption" style="ellipse;whiteSpace=wrap;html=1;shadow=0;fillColor=#dae8fc;strokeColor=#6c8ebf;" parent="DFyGhb6JVYN7RhWKaapj-1" vertex="1">
                    <mxGeometry x="340" y="510" width="140" height="70" as="geometry"/>
                </mxCell>
                <mxCell id="DFyGhb6JVYN7RhWKaapj-9" value="Asymmetric keys with public to decryption" style="ellipse;whiteSpace=wrap;html=1;shadow=0;fillColor=#dae8fc;strokeColor=#6c8ebf;" parent="DFyGhb6JVYN7RhWKaapj-1" vertex="1">
                    <mxGeometry x="490" y="520" width="140" height="70" as="geometry"/>
                </mxCell>
                <mxCell id="DFyGhb6JVYN7RhWKaapj-10" style="edgeStyle=none;rounded=0;html=1;startArrow=none;startFill=0;jettySize=auto;orthogonalLoop=1;fontColor=#000000;" parent="DFyGhb6JVYN7RhWKaapj-1" source="DFyGhb6JVYN7RhWKaapj-2" target="DFyGhb6JVYN7RhWKaapj-7" edge="1">
                    <mxGeometry relative="1" as="geometry"/>
                </mxCell>
                <mxCell id="DFyGhb6JVYN7RhWKaapj-11" style="edgeStyle=none;rounded=0;html=1;startArrow=none;startFill=0;jettySize=auto;orthogonalLoop=1;fontColor=#000000;" parent="DFyGhb6JVYN7RhWKaapj-1" source="DFyGhb6JVYN7RhWKaapj-2" target="DFyGhb6JVYN7RhWKaapj-8" edge="1">
                    <mxGeometry relative="1" as="geometry"/>
                </mxCell>
                <mxCell id="DFyGhb6JVYN7RhWKaapj-12" style="edgeStyle=none;rounded=0;html=1;startArrow=none;startFill=0;jettySize=auto;orthogonalLoop=1;fontColor=#000000;" parent="DFyGhb6JVYN7RhWKaapj-1" source="DFyGhb6JVYN7RhWKaapj-2" target="DFyGhb6JVYN7RhWKaapj-9" edge="1">
                    <mxGeometry relative="1" as="geometry"/>
                </mxCell>
                <mxCell id="DFyGhb6JVYN7RhWKaapj-13" value="Sharing keys" style="ellipse;whiteSpace=wrap;html=1;shadow=0;fillColor=#d5e8d4;strokeColor=#82b366;" parent="DFyGhb6JVYN7RhWKaapj-1" vertex="1">
                    <mxGeometry x="670" y="330" width="140" height="70" as="geometry"/>
                </mxCell>
                <mxCell id="M4--a1Le92PXE-c29II8-3" style="edgeStyle=none;rounded=0;orthogonalLoop=1;jettySize=auto;html=1;" parent="DFyGhb6JVYN7RhWKaapj-1" source="M4--a1Le92PXE-c29II8-1" target="M4--a1Le92PXE-c29II8-2" edge="1">
                    <mxGeometry relative="1" as="geometry"/>
                </mxCell>
                <mxCell id="M4--a1Le92PXE-c29II8-6" style="edgeStyle=none;rounded=0;orthogonalLoop=1;jettySize=auto;html=1;" parent="DFyGhb6JVYN7RhWKaapj-1" source="M4--a1Le92PXE-c29II8-1" target="M4--a1Le92PXE-c29II8-5" edge="1">
                    <mxGeometry relative="1" as="geometry"/>
                </mxCell>
                <mxCell id="5ZMODKo_jDgsa89PHrTJ-5" style="edgeStyle=none;rounded=0;orthogonalLoop=1;jettySize=auto;html=1;" parent="DFyGhb6JVYN7RhWKaapj-1" source="M4--a1Le92PXE-c29II8-1" target="5ZMODKo_jDgsa89PHrTJ-0" edge="1">
                    <mxGeometry relative="1" as="geometry"/>
                </mxCell>
                <mxCell id="M4--a1Le92PXE-c29II8-1" value="Encryption for communications" style="ellipse;whiteSpace=wrap;html=1;shadow=0;fillColor=#f8cecc;fontColor=#000000;strokeColor=#b85450;" parent="DFyGhb6JVYN7RhWKaapj-1" vertex="1">
                    <mxGeometry x="190" y="60" width="140" height="70" as="geometry"/>
                </mxCell>
                <mxCell id="x0RzcMRs4jeraa-7IA-y-0" style="edgeStyle=none;rounded=0;orthogonalLoop=1;jettySize=auto;html=1;" parent="DFyGhb6JVYN7RhWKaapj-1" source="M4--a1Le92PXE-c29II8-2" target="DFyGhb6JVYN7RhWKaapj-2" edge="1">
                    <mxGeometry relative="1" as="geometry"/>
                </mxCell>
                <mxCell id="M4--a1Le92PXE-c29II8-2" value="Without Authority" style="ellipse;whiteSpace=wrap;html=1;shadow=0;fillColor=#fff2cc;fontColor=#000000;strokeColor=#d6b656;" parent="DFyGhb6JVYN7RhWKaapj-1" vertex="1">
                    <mxGeometry x="300" y="260" width="140" height="70" as="geometry"/>
                </mxCell>
                <mxCell id="M4--a1Le92PXE-c29II8-5" value="With Authority" style="ellipse;whiteSpace=wrap;html=1;shadow=0;fillColor=#fff2cc;fontColor=#000000;strokeColor=#d6b656;" parent="DFyGhb6JVYN7RhWKaapj-1" vertex="1">
                    <mxGeometry x="100" y="230" width="140" height="70" as="geometry"/>
                </mxCell>
                <mxCell id="5ZMODKo_jDgsa89PHrTJ-3" style="edgeStyle=none;rounded=0;orthogonalLoop=1;jettySize=auto;html=1;" parent="DFyGhb6JVYN7RhWKaapj-1" source="5ZMODKo_jDgsa89PHrTJ-0" target="5ZMODKo_jDgsa89PHrTJ-1" edge="1">
                    <mxGeometry relative="1" as="geometry"/>
                </mxCell>
                <mxCell id="5ZMODKo_jDgsa89PHrTJ-4" style="edgeStyle=none;rounded=0;orthogonalLoop=1;jettySize=auto;html=1;" parent="DFyGhb6JVYN7RhWKaapj-1" source="5ZMODKo_jDgsa89PHrTJ-0" target="5ZMODKo_jDgsa89PHrTJ-2" edge="1">
                    <mxGeometry relative="1" as="geometry"/>
                </mxCell>
                <mxCell id="5ZMODKo_jDgsa89PHrTJ-0" value="Proxy" style="ellipse;whiteSpace=wrap;html=1;shadow=0;fillColor=#d5e8d4;strokeColor=#82b366;" parent="DFyGhb6JVYN7RhWKaapj-1" vertex="1">
                    <mxGeometry x="230" y="360" width="140" height="70" as="geometry"/>
                </mxCell>
                <mxCell id="5ZMODKo_jDgsa89PHrTJ-1" value="VPN" style="ellipse;whiteSpace=wrap;html=1;shadow=0;fillColor=#fff2cc;fontColor=#000000;strokeColor=#d6b656;" parent="DFyGhb6JVYN7RhWKaapj-1" vertex="1">
                    <mxGeometry x="30" y="380" width="140" height="70" as="geometry"/>
                </mxCell>
                <mxCell id="5ZMODKo_jDgsa89PHrTJ-2" value="Network" style="ellipse;whiteSpace=wrap;html=1;shadow=0;fillColor=#fff2cc;fontColor=#000000;strokeColor=#d6b656;" parent="DFyGhb6JVYN7RhWKaapj-1" vertex="1">
                    <mxGeometry x="120" y="500" width="140" height="70" as="geometry"/>
                </mxCell>
            </root>
        </mxGraphModel>
    </diagram>
    <diagram name="Identification" id="MDawdC9MlFJVSPIhTLwX">
        <mxGraphModel dx="1175" dy="798" grid="1" gridSize="10" guides="1" tooltips="1" connect="1" arrows="1" fold="1" page="1" pageScale="1" pageWidth="827" pageHeight="1169" math="0" shadow="0">
            <root>
                <mxCell id="wRJIu4pe8DfeMKrVcZsV-0"/>
                <mxCell id="wRJIu4pe8DfeMKrVcZsV-1" parent="wRJIu4pe8DfeMKrVcZsV-0"/>
                <mxCell id="s2zlQnECK-RgkDzHZ39e-0" value="&lt;font style=&quot;font-size: 24px&quot;&gt;Identification&lt;/font&gt;" style="shape=note;whiteSpace=wrap;html=1;backgroundOutline=1;darkOpacity=0.05;fillColor=#f8cecc;strokeColor=#b85450;" parent="wRJIu4pe8DfeMKrVcZsV-1" vertex="1">
                    <mxGeometry x="30" y="20" width="260" height="130" as="geometry"/>
                </mxCell>
                <mxCell id="4GRldUNkniKkmwY2XWRN-19" value="" style="ellipse;html=1;shape=startState;fillColor=#000000;strokeColor=#ff0000;" parent="wRJIu4pe8DfeMKrVcZsV-1" vertex="1">
                    <mxGeometry x="165" y="290" width="30" height="30" as="geometry"/>
                </mxCell>
                <mxCell id="4GRldUNkniKkmwY2XWRN-20" value="" style="html=1;verticalAlign=bottom;endArrow=open;endSize=8;strokeColor=#ff0000;" parent="wRJIu4pe8DfeMKrVcZsV-1" source="4GRldUNkniKkmwY2XWRN-19" target="4GRldUNkniKkmwY2XWRN-21" edge="1">
                    <mxGeometry relative="1" as="geometry">
                        <mxPoint x="145" y="460" as="targetPoint"/>
                    </mxGeometry>
                </mxCell>
                <mxCell id="4GRldUNkniKkmwY2XWRN-21" value="" style="rhombus;whiteSpace=wrap;html=1;fillColor=#ffffc0;strokeColor=#ff0000;" parent="wRJIu4pe8DfeMKrVcZsV-1" vertex="1">
                    <mxGeometry x="140" y="400" width="80" height="40" as="geometry"/>
                </mxCell>
                <mxCell id="4GRldUNkniKkmwY2XWRN-22" value="" style="html=1;align=left;verticalAlign=bottom;endArrow=open;endSize=8;strokeColor=#ff0000;" parent="wRJIu4pe8DfeMKrVcZsV-1" source="4GRldUNkniKkmwY2XWRN-21" target="4GRldUNkniKkmwY2XWRN-29" edge="1">
                    <mxGeometry x="-0.5036" y="30" relative="1" as="geometry">
                        <mxPoint x="390" y="480" as="targetPoint"/>
                        <mxPoint as="offset"/>
                    </mxGeometry>
                </mxCell>
                <mxCell id="4GRldUNkniKkmwY2XWRN-23" value="" style="html=1;align=left;verticalAlign=top;endArrow=open;endSize=8;strokeColor=#ff0000;" parent="wRJIu4pe8DfeMKrVcZsV-1" source="4GRldUNkniKkmwY2XWRN-21" target="4GRldUNkniKkmwY2XWRN-24" edge="1">
                    <mxGeometry x="-1" relative="1" as="geometry">
                        <mxPoint x="90" y="480" as="targetPoint"/>
                    </mxGeometry>
                </mxCell>
                <mxCell id="4GRldUNkniKkmwY2XWRN-24" value="log_in" style="rounded=1;whiteSpace=wrap;html=1;arcSize=40;fontColor=#000000;fillColor=#ffffc0;strokeColor=#ff0000;" parent="wRJIu4pe8DfeMKrVcZsV-1" vertex="1">
                    <mxGeometry x="60" y="510" width="120" height="40" as="geometry"/>
                </mxCell>
                <mxCell id="4GRldUNkniKkmwY2XWRN-29" value="register" style="rounded=1;whiteSpace=wrap;html=1;arcSize=40;fontColor=#000000;fillColor=#ffffc0;strokeColor=#ff0000;" parent="wRJIu4pe8DfeMKrVcZsV-1" vertex="1">
                    <mxGeometry x="200" y="470" width="120" height="40" as="geometry"/>
                </mxCell>
                <mxCell id="4GRldUNkniKkmwY2XWRN-30" value="" style="html=1;verticalAlign=bottom;endArrow=open;endSize=8;strokeColor=#ff0000;" parent="wRJIu4pe8DfeMKrVcZsV-1" source="4GRldUNkniKkmwY2XWRN-29" target="4GRldUNkniKkmwY2XWRN-32" edge="1">
                    <mxGeometry relative="1" as="geometry">
                        <mxPoint x="340" y="620" as="targetPoint"/>
                    </mxGeometry>
                </mxCell>
                <mxCell id="4GRldUNkniKkmwY2XWRN-31" value="logged = ..." style="rounded=1;whiteSpace=wrap;html=1;arcSize=40;fontColor=#000000;fillColor=#ffffc0;strokeColor=#ff0000;" parent="wRJIu4pe8DfeMKrVcZsV-1" vertex="1">
                    <mxGeometry x="570" y="660" width="120" height="40" as="geometry"/>
                </mxCell>
                <mxCell id="4GRldUNkniKkmwY2XWRN-32" value="identifiers = ..." style="rounded=1;whiteSpace=wrap;html=1;arcSize=40;fontColor=#000000;fillColor=#ffffc0;strokeColor=#ff0000;" parent="wRJIu4pe8DfeMKrVcZsV-1" vertex="1">
                    <mxGeometry x="570" y="500" width="120" height="40" as="geometry"/>
                </mxCell>
                <mxCell id="4GRldUNkniKkmwY2XWRN-34" value="" style="html=1;verticalAlign=bottom;endArrow=open;endSize=8;strokeColor=#ff0000;" parent="wRJIu4pe8DfeMKrVcZsV-1" source="4GRldUNkniKkmwY2XWRN-32" target="4GRldUNkniKkmwY2XWRN-31" edge="1">
                    <mxGeometry relative="1" as="geometry">
                        <mxPoint x="500" y="538.8888888888889" as="targetPoint"/>
                        <mxPoint x="350" y="511.1111111111111" as="sourcePoint"/>
                    </mxGeometry>
                </mxCell>
                <mxCell id="4GRldUNkniKkmwY2XWRN-36" value="" style="html=1;verticalAlign=bottom;endArrow=open;endSize=8;strokeColor=#ff0000;" parent="wRJIu4pe8DfeMKrVcZsV-1" source="4GRldUNkniKkmwY2XWRN-31" target="4GRldUNkniKkmwY2XWRN-37" edge="1">
                    <mxGeometry relative="1" as="geometry">
                        <mxPoint x="210" y="676" as="targetPoint"/>
                        <mxPoint x="350" y="511.1111111111111" as="sourcePoint"/>
                    </mxGeometry>
                </mxCell>
                <mxCell id="4GRldUNkniKkmwY2XWRN-37" value="" style="rhombus;whiteSpace=wrap;html=1;fillColor=#ffffc0;strokeColor=#ff0000;" parent="wRJIu4pe8DfeMKrVcZsV-1" vertex="1">
                    <mxGeometry x="90" y="660" width="80" height="40" as="geometry"/>
                </mxCell>
                <mxCell id="4GRldUNkniKkmwY2XWRN-39" value="oui" style="html=1;align=left;verticalAlign=top;endArrow=open;endSize=8;strokeColor=#ff0000;" parent="wRJIu4pe8DfeMKrVcZsV-1" source="4GRldUNkniKkmwY2XWRN-37" target="4GRldUNkniKkmwY2XWRN-54" edge="1">
                    <mxGeometry x="-0.1154" y="-3" relative="1" as="geometry">
                        <mxPoint x="150" y="800" as="targetPoint"/>
                        <mxPoint as="offset"/>
                    </mxGeometry>
                </mxCell>
                <mxCell id="4GRldUNkniKkmwY2XWRN-49" value="" style="html=1;align=left;verticalAlign=top;endArrow=open;endSize=8;strokeColor=#ff0000;" parent="wRJIu4pe8DfeMKrVcZsV-1" source="4GRldUNkniKkmwY2XWRN-24" target="4GRldUNkniKkmwY2XWRN-31" edge="1">
                    <mxGeometry x="-1" relative="1" as="geometry">
                        <mxPoint x="140.909090909091" y="520" as="targetPoint"/>
                        <mxPoint x="340" y="610" as="sourcePoint"/>
                    </mxGeometry>
                </mxCell>
                <mxCell id="wRJIu4pe8DfeMKrVcZsV-3" value="Identification" style="swimlane;fontStyle=0;childLayout=stackLayout;horizontal=1;startSize=26;fillColor=#fff2cc;horizontalStack=0;resizeParent=1;resizeParentMax=0;resizeLast=0;collapsible=1;marginBottom=0;strokeColor=#d6b656;" parent="wRJIu4pe8DfeMKrVcZsV-1" vertex="1">
                    <mxGeometry x="414" y="120" width="220" height="194" as="geometry">
                        <mxRectangle x="500" y="100" width="80" height="26" as="alternateBounds"/>
                    </mxGeometry>
                </mxCell>
                <mxCell id="wRJIu4pe8DfeMKrVcZsV-4" value="+ log_in(UniqueId uid, Key key)" style="text;strokeColor=#d6b656;fillColor=#fff2cc;align=left;verticalAlign=top;spacingLeft=4;spacingRight=4;overflow=hidden;rotatable=0;points=[[0,0.5],[1,0.5]];portConstraint=eastwest;" parent="wRJIu4pe8DfeMKrVcZsV-3" vertex="1">
                    <mxGeometry y="26" width="220" height="24" as="geometry"/>
                </mxCell>
                <mxCell id="wRJIu4pe8DfeMKrVcZsV-5" value="+ log_out()" style="text;strokeColor=#d6b656;fillColor=#fff2cc;align=left;verticalAlign=top;spacingLeft=4;spacingRight=4;overflow=hidden;rotatable=0;points=[[0,0.5],[1,0.5]];portConstraint=eastwest;" parent="wRJIu4pe8DfeMKrVcZsV-3" vertex="1">
                    <mxGeometry y="50" width="220" height="24" as="geometry"/>
                </mxCell>
                <mxCell id="wRJIu4pe8DfeMKrVcZsV-6" value="+ reset_key()" style="text;strokeColor=#d6b656;fillColor=#fff2cc;align=left;verticalAlign=top;spacingLeft=4;spacingRight=4;overflow=hidden;rotatable=0;points=[[0,0.5],[1,0.5]];portConstraint=eastwest;" parent="wRJIu4pe8DfeMKrVcZsV-3" vertex="1">
                    <mxGeometry y="74" width="220" height="24" as="geometry"/>
                </mxCell>
                <mxCell id="Fv4XWHklnfREmPM7rNg5-0" value="+ delete(Key key)" style="text;strokeColor=#d6b656;fillColor=#fff2cc;align=left;verticalAlign=top;spacingLeft=4;spacingRight=4;overflow=hidden;rotatable=0;points=[[0,0.5],[1,0.5]];portConstraint=eastwest;" parent="wRJIu4pe8DfeMKrVcZsV-3" vertex="1">
                    <mxGeometry y="98" width="220" height="24" as="geometry"/>
                </mxCell>
                <mxCell id="Fv4XWHklnfREmPM7rNg5-1" value="+ register()" style="text;strokeColor=#d6b656;fillColor=#fff2cc;align=left;verticalAlign=top;spacingLeft=4;spacingRight=4;overflow=hidden;rotatable=0;points=[[0,0.5],[1,0.5]];portConstraint=eastwest;" parent="wRJIu4pe8DfeMKrVcZsV-3" vertex="1">
                    <mxGeometry y="122" width="220" height="24" as="geometry"/>
                </mxCell>
                <mxCell id="EnqUNy2TsdAbZd_gycS5-0" value="+ logged: bool" style="text;strokeColor=#d6b656;fillColor=#fff2cc;align=left;verticalAlign=top;spacingLeft=4;spacingRight=4;overflow=hidden;rotatable=0;points=[[0,0.5],[1,0.5]];portConstraint=eastwest;" parent="wRJIu4pe8DfeMKrVcZsV-3" vertex="1">
                    <mxGeometry y="146" width="220" height="24" as="geometry"/>
                </mxCell>
                <mxCell id="EnqUNy2TsdAbZd_gycS5-1" value="+ identifiers: (UniqueId, Key)" style="text;strokeColor=#d6b656;fillColor=#fff2cc;align=left;verticalAlign=top;spacingLeft=4;spacingRight=4;overflow=hidden;rotatable=0;points=[[0,0.5],[1,0.5]];portConstraint=eastwest;" parent="wRJIu4pe8DfeMKrVcZsV-3" vertex="1">
                    <mxGeometry y="170" width="220" height="24" as="geometry"/>
                </mxCell>
                <mxCell id="4GRldUNkniKkmwY2XWRN-52" value="log_out" style="rounded=1;whiteSpace=wrap;html=1;arcSize=40;fontColor=#000000;fillColor=#ffffc0;strokeColor=#ff0000;" parent="wRJIu4pe8DfeMKrVcZsV-1" vertex="1">
                    <mxGeometry x="120" y="970" width="120" height="40" as="geometry"/>
                </mxCell>
                <mxCell id="4GRldUNkniKkmwY2XWRN-54" value="" style="rhombus;whiteSpace=wrap;html=1;fillColor=#ffffc0;strokeColor=#ff0000;" parent="wRJIu4pe8DfeMKrVcZsV-1" vertex="1">
                    <mxGeometry x="30" y="750" width="80" height="40" as="geometry"/>
                </mxCell>
                <mxCell id="4GRldUNkniKkmwY2XWRN-57" value="" style="html=1;verticalAlign=bottom;endArrow=open;endSize=8;strokeColor=#ff0000;entryX=0;entryY=0.5;entryDx=0;entryDy=0;exitX=0.5;exitY=1;exitDx=0;exitDy=0;" parent="wRJIu4pe8DfeMKrVcZsV-1" source="4GRldUNkniKkmwY2XWRN-54" target="4GRldUNkniKkmwY2XWRN-52" edge="1">
                    <mxGeometry relative="1" as="geometry">
                        <mxPoint x="180" y="690" as="targetPoint"/>
                        <mxPoint x="50" y="920" as="sourcePoint"/>
                    </mxGeometry>
                </mxCell>
                <mxCell id="4GRldUNkniKkmwY2XWRN-58" value="delete" style="rounded=1;whiteSpace=wrap;html=1;arcSize=40;fontColor=#000000;fillColor=#ffffc0;strokeColor=#ff0000;" parent="wRJIu4pe8DfeMKrVcZsV-1" vertex="1">
                    <mxGeometry x="120" y="910" width="120" height="40" as="geometry"/>
                </mxCell>
                <mxCell id="4GRldUNkniKkmwY2XWRN-59" value="" style="html=1;verticalAlign=bottom;endArrow=open;endSize=8;strokeColor=#ff0000;entryX=0;entryY=0.5;entryDx=0;entryDy=0;exitX=0.5;exitY=1;exitDx=0;exitDy=0;" parent="wRJIu4pe8DfeMKrVcZsV-1" source="4GRldUNkniKkmwY2XWRN-54" target="4GRldUNkniKkmwY2XWRN-58" edge="1">
                    <mxGeometry relative="1" as="geometry">
                        <mxPoint x="140" y="1110" as="targetPoint"/>
                        <mxPoint x="150" y="870" as="sourcePoint"/>
                    </mxGeometry>
                </mxCell>
                <mxCell id="4GRldUNkniKkmwY2XWRN-60" value="reset_key" style="rounded=1;whiteSpace=wrap;html=1;arcSize=40;fontColor=#000000;fillColor=#ffffc0;strokeColor=#ff0000;" parent="wRJIu4pe8DfeMKrVcZsV-1" vertex="1">
                    <mxGeometry x="120" y="850" width="120" height="40" as="geometry"/>
                </mxCell>
                <mxCell id="4GRldUNkniKkmwY2XWRN-61" value="" style="html=1;verticalAlign=bottom;endArrow=open;endSize=8;strokeColor=#ff0000;entryX=0;entryY=0.5;entryDx=0;entryDy=0;exitX=0.5;exitY=1;exitDx=0;exitDy=0;" parent="wRJIu4pe8DfeMKrVcZsV-1" source="4GRldUNkniKkmwY2XWRN-54" target="4GRldUNkniKkmwY2XWRN-60" edge="1">
                    <mxGeometry relative="1" as="geometry">
                        <mxPoint x="150" y="1020" as="targetPoint"/>
                        <mxPoint x="80" y="820" as="sourcePoint"/>
                    </mxGeometry>
                </mxCell>
                <mxCell id="4GRldUNkniKkmwY2XWRN-63" value="logged = false" style="rounded=1;whiteSpace=wrap;html=1;arcSize=40;fontColor=#000000;fillColor=#ffffc0;strokeColor=#ff0000;" parent="wRJIu4pe8DfeMKrVcZsV-1" vertex="1">
                    <mxGeometry x="570" y="940" width="120" height="40" as="geometry"/>
                </mxCell>
                <mxCell id="4GRldUNkniKkmwY2XWRN-64" value="" style="html=1;verticalAlign=bottom;endArrow=open;endSize=8;strokeColor=#ff0000;" parent="wRJIu4pe8DfeMKrVcZsV-1" source="4GRldUNkniKkmwY2XWRN-58" target="4GRldUNkniKkmwY2XWRN-63" edge="1">
                    <mxGeometry relative="1" as="geometry">
                        <mxPoint x="130" y="880" as="targetPoint"/>
                        <mxPoint x="80" y="800" as="sourcePoint"/>
                    </mxGeometry>
                </mxCell>
                <mxCell id="4GRldUNkniKkmwY2XWRN-65" value="" style="html=1;verticalAlign=bottom;endArrow=open;endSize=8;strokeColor=#ff0000;" parent="wRJIu4pe8DfeMKrVcZsV-1" source="4GRldUNkniKkmwY2XWRN-52" target="4GRldUNkniKkmwY2XWRN-63" edge="1">
                    <mxGeometry relative="1" as="geometry">
                        <mxPoint x="580" y="966" as="targetPoint"/>
                        <mxPoint x="250" y="944" as="sourcePoint"/>
                    </mxGeometry>
                </mxCell>
                <mxCell id="4GRldUNkniKkmwY2XWRN-66" value="" style="ellipse;html=1;shape=endState;fillColor=#000000;strokeColor=#ff0000;" parent="wRJIu4pe8DfeMKrVcZsV-1" vertex="1">
                    <mxGeometry x="130" y="1090" width="30" height="30" as="geometry"/>
                </mxCell>
                <mxCell id="4GRldUNkniKkmwY2XWRN-67" value="" style="html=1;verticalAlign=bottom;endArrow=open;endSize=8;strokeColor=#ff0000;" parent="wRJIu4pe8DfeMKrVcZsV-1" source="4GRldUNkniKkmwY2XWRN-63" target="4GRldUNkniKkmwY2XWRN-66" edge="1">
                    <mxGeometry relative="1" as="geometry">
                        <mxPoint x="580" y="974" as="targetPoint"/>
                        <mxPoint x="680" y="1050" as="sourcePoint"/>
                    </mxGeometry>
                </mxCell>
                <mxCell id="4GRldUNkniKkmwY2XWRN-69" value="non" style="html=1;align=left;verticalAlign=top;endArrow=open;endSize=8;strokeColor=#ff0000;" parent="wRJIu4pe8DfeMKrVcZsV-1" source="4GRldUNkniKkmwY2XWRN-37" target="4GRldUNkniKkmwY2XWRN-70" edge="1">
                    <mxGeometry x="0.0034" y="12" relative="1" as="geometry">
                        <mxPoint x="200" y="760" as="targetPoint"/>
                        <mxPoint x="130" y="705" as="sourcePoint"/>
                        <mxPoint as="offset"/>
                    </mxGeometry>
                </mxCell>
                <mxCell id="4GRldUNkniKkmwY2XWRN-70" value="" style="ellipse;html=1;shape=endState;fillColor=#000000;strokeColor=#ff0000;" parent="wRJIu4pe8DfeMKrVcZsV-1" vertex="1">
                    <mxGeometry x="195" y="740" width="30" height="30" as="geometry"/>
                </mxCell>
            </root>
        </mxGraphModel>
    </diagram>
    <diagram id="p_EaH3xuW3V3feT5w6Fn" name="UCP">
        <mxGraphModel dx="1175" dy="798" grid="1" gridSize="10" guides="1" tooltips="1" connect="1" arrows="1" fold="1" page="1" pageScale="1" pageWidth="827" pageHeight="1169" math="0" shadow="0">
            <root>
                <mxCell id="kJnouxsRyTXpM78P7oy--0"/>
                <mxCell id="kJnouxsRyTXpM78P7oy--1" parent="kJnouxsRyTXpM78P7oy--0"/>
                <mxCell id="wJQ5t48Ypfd9z2SdZR_g-0" value="&lt;font style=&quot;font-size: 24px&quot;&gt;Unified Cloud Protocol&lt;/font&gt;" style="shape=note;whiteSpace=wrap;html=1;backgroundOutline=1;darkOpacity=0.05;fillColor=#f8cecc;strokeColor=#b85450;" parent="kJnouxsRyTXpM78P7oy--1" vertex="1">
                    <mxGeometry x="30" y="20" width="260" height="130" as="geometry"/>
                </mxCell>
                <mxCell id="cN2NgbfkJd5qnOZjlfYI-0" value="" style="ellipse;html=1;shape=startState;fillColor=#000000;strokeColor=#ff0000;" parent="kJnouxsRyTXpM78P7oy--1" vertex="1">
                    <mxGeometry x="165" y="290" width="30" height="30" as="geometry"/>
                </mxCell>
                <mxCell id="cN2NgbfkJd5qnOZjlfYI-1" value="" style="html=1;verticalAlign=bottom;endArrow=open;endSize=8;strokeColor=#ff0000;" parent="kJnouxsRyTXpM78P7oy--1" source="cN2NgbfkJd5qnOZjlfYI-0" target="cN2NgbfkJd5qnOZjlfYI-2" edge="1">
                    <mxGeometry relative="1" as="geometry">
                        <mxPoint x="145" y="460" as="targetPoint"/>
                    </mxGeometry>
                </mxCell>
                <mxCell id="cN2NgbfkJd5qnOZjlfYI-2" value="" style="rhombus;whiteSpace=wrap;html=1;fillColor=#ffffc0;strokeColor=#ff0000;" parent="kJnouxsRyTXpM78P7oy--1" vertex="1">
                    <mxGeometry x="140" y="400" width="80" height="40" as="geometry"/>
                </mxCell>
                <mxCell id="cN2NgbfkJd5qnOZjlfYI-3" value="" style="html=1;align=left;verticalAlign=bottom;endArrow=open;endSize=8;strokeColor=#ff0000;" parent="kJnouxsRyTXpM78P7oy--1" source="cN2NgbfkJd5qnOZjlfYI-2" target="cN2NgbfkJd5qnOZjlfYI-6" edge="1">
                    <mxGeometry x="-0.5036" y="30" relative="1" as="geometry">
                        <mxPoint x="390" y="480" as="targetPoint"/>
                        <mxPoint as="offset"/>
                    </mxGeometry>
                </mxCell>
                <mxCell id="cN2NgbfkJd5qnOZjlfYI-4" value="" style="html=1;align=left;verticalAlign=top;endArrow=open;endSize=8;strokeColor=#ff0000;" parent="kJnouxsRyTXpM78P7oy--1" source="cN2NgbfkJd5qnOZjlfYI-2" target="cN2NgbfkJd5qnOZjlfYI-5" edge="1">
                    <mxGeometry x="-1" relative="1" as="geometry">
                        <mxPoint x="90" y="480" as="targetPoint"/>
                    </mxGeometry>
                </mxCell>
                <mxCell id="cN2NgbfkJd5qnOZjlfYI-5" value="log_in" style="rounded=1;whiteSpace=wrap;html=1;arcSize=40;fontColor=#000000;fillColor=#ffffc0;strokeColor=#ff0000;" parent="kJnouxsRyTXpM78P7oy--1" vertex="1">
                    <mxGeometry x="210" y="480" width="120" height="40" as="geometry"/>
                </mxCell>
                <mxCell id="cN2NgbfkJd5qnOZjlfYI-6" value="register" style="rounded=1;whiteSpace=wrap;html=1;arcSize=40;fontColor=#000000;fillColor=#ffffc0;strokeColor=#ff0000;" parent="kJnouxsRyTXpM78P7oy--1" vertex="1">
                    <mxGeometry x="70" y="520" width="120" height="40" as="geometry"/>
                </mxCell>
                <mxCell id="cN2NgbfkJd5qnOZjlfYI-7" value="" style="html=1;verticalAlign=bottom;endArrow=open;endSize=8;strokeColor=#ff0000;" parent="kJnouxsRyTXpM78P7oy--1" source="cN2NgbfkJd5qnOZjlfYI-6" target="cN2NgbfkJd5qnOZjlfYI-8" edge="1">
                    <mxGeometry relative="1" as="geometry">
                        <mxPoint x="370" y="600" as="targetPoint"/>
                    </mxGeometry>
                </mxCell>
                <mxCell id="cN2NgbfkJd5qnOZjlfYI-15" value="UCP" style="swimlane;fontStyle=0;childLayout=stackLayout;horizontal=1;startSize=26;fillColor=#fff2cc;horizontalStack=0;resizeParent=1;resizeParentMax=0;resizeLast=0;collapsible=1;marginBottom=0;strokeColor=#d6b656;" parent="kJnouxsRyTXpM78P7oy--1" vertex="1">
                    <mxGeometry x="400" y="120" width="400" height="218" as="geometry">
                        <mxRectangle x="500" y="100" width="80" height="26" as="alternateBounds"/>
                    </mxGeometry>
                </mxCell>
                <mxCell id="cN2NgbfkJd5qnOZjlfYI-16" value="+ log_in(Username username, Password password, bool stay)" style="text;strokeColor=#d6b656;fillColor=#fff2cc;align=left;verticalAlign=top;spacingLeft=4;spacingRight=4;overflow=hidden;rotatable=0;points=[[0,0.5],[1,0.5]];portConstraint=eastwest;" parent="cN2NgbfkJd5qnOZjlfYI-15" vertex="1">
                    <mxGeometry y="26" width="400" height="24" as="geometry"/>
                </mxCell>
                <mxCell id="f_-ND99662alDHh7XFFO-0" value="+ log_in(Key key)" style="text;strokeColor=#d6b656;fillColor=#fff2cc;align=left;verticalAlign=top;spacingLeft=4;spacingRight=4;overflow=hidden;rotatable=0;points=[[0,0.5],[1,0.5]];portConstraint=eastwest;" parent="cN2NgbfkJd5qnOZjlfYI-15" vertex="1">
                    <mxGeometry y="50" width="400" height="24" as="geometry"/>
                </mxCell>
                <mxCell id="cN2NgbfkJd5qnOZjlfYI-17" value="+ log_out()" style="text;strokeColor=#d6b656;fillColor=#fff2cc;align=left;verticalAlign=top;spacingLeft=4;spacingRight=4;overflow=hidden;rotatable=0;points=[[0,0.5],[1,0.5]];portConstraint=eastwest;" parent="cN2NgbfkJd5qnOZjlfYI-15" vertex="1">
                    <mxGeometry y="74" width="400" height="24" as="geometry"/>
                </mxCell>
                <mxCell id="cN2NgbfkJd5qnOZjlfYI-18" value="+ set_password(Password old, Password new)" style="text;strokeColor=#d6b656;fillColor=#fff2cc;align=left;verticalAlign=top;spacingLeft=4;spacingRight=4;overflow=hidden;rotatable=0;points=[[0,0.5],[1,0.5]];portConstraint=eastwest;" parent="cN2NgbfkJd5qnOZjlfYI-15" vertex="1">
                    <mxGeometry y="98" width="400" height="24" as="geometry"/>
                </mxCell>
                <mxCell id="cN2NgbfkJd5qnOZjlfYI-19" value="+ delete(Password password)" style="text;strokeColor=#d6b656;fillColor=#fff2cc;align=left;verticalAlign=top;spacingLeft=4;spacingRight=4;overflow=hidden;rotatable=0;points=[[0,0.5],[1,0.5]];portConstraint=eastwest;" parent="cN2NgbfkJd5qnOZjlfYI-15" vertex="1">
                    <mxGeometry y="122" width="400" height="24" as="geometry"/>
                </mxCell>
                <mxCell id="cN2NgbfkJd5qnOZjlfYI-20" value="+ register(Username username, Password password)" style="text;strokeColor=#d6b656;fillColor=#fff2cc;align=left;verticalAlign=top;spacingLeft=4;spacingRight=4;overflow=hidden;rotatable=0;points=[[0,0.5],[1,0.5]];portConstraint=eastwest;" parent="cN2NgbfkJd5qnOZjlfYI-15" vertex="1">
                    <mxGeometry y="146" width="400" height="24" as="geometry"/>
                </mxCell>
                <mxCell id="cN2NgbfkJd5qnOZjlfYI-21" value="+ logged: bool" style="text;strokeColor=#d6b656;fillColor=#fff2cc;align=left;verticalAlign=top;spacingLeft=4;spacingRight=4;overflow=hidden;rotatable=0;points=[[0,0.5],[1,0.5]];portConstraint=eastwest;" parent="cN2NgbfkJd5qnOZjlfYI-15" vertex="1">
                    <mxGeometry y="170" width="400" height="24" as="geometry"/>
                </mxCell>
                <mxCell id="cN2NgbfkJd5qnOZjlfYI-22" value="+ key: Key" style="text;strokeColor=#d6b656;fillColor=#fff2cc;align=left;verticalAlign=top;spacingLeft=4;spacingRight=4;overflow=hidden;rotatable=0;points=[[0,0.5],[1,0.5]];portConstraint=eastwest;" parent="cN2NgbfkJd5qnOZjlfYI-15" vertex="1">
                    <mxGeometry y="194" width="400" height="24" as="geometry"/>
                </mxCell>
                <mxCell id="cN2NgbfkJd5qnOZjlfYI-8" value="logged = ..." style="rounded=1;whiteSpace=wrap;html=1;arcSize=40;fontColor=#000000;fillColor=#ffffc0;strokeColor=#ff0000;" parent="kJnouxsRyTXpM78P7oy--1" vertex="1">
                    <mxGeometry x="660" y="670" width="120" height="40" as="geometry"/>
                </mxCell>
                <mxCell id="cN2NgbfkJd5qnOZjlfYI-9" value="key = ..." style="rounded=1;whiteSpace=wrap;html=1;arcSize=40;fontColor=#000000;fillColor=#ffffc0;strokeColor=#ff0000;" parent="kJnouxsRyTXpM78P7oy--1" vertex="1">
                    <mxGeometry x="680" y="530" width="120" height="40" as="geometry"/>
                </mxCell>
                <mxCell id="cN2NgbfkJd5qnOZjlfYI-10" value="" style="html=1;verticalAlign=bottom;endArrow=open;endSize=8;strokeColor=#ff0000;" parent="kJnouxsRyTXpM78P7oy--1" source="cN2NgbfkJd5qnOZjlfYI-9" target="cN2NgbfkJd5qnOZjlfYI-8" edge="1">
                    <mxGeometry relative="1" as="geometry">
                        <mxPoint x="590" y="548.8888888888889" as="targetPoint"/>
                        <mxPoint x="440" y="521.1111111111111" as="sourcePoint"/>
                    </mxGeometry>
                </mxCell>
                <mxCell id="cN2NgbfkJd5qnOZjlfYI-11" value="" style="html=1;verticalAlign=bottom;endArrow=open;endSize=8;strokeColor=#ff0000;" parent="kJnouxsRyTXpM78P7oy--1" source="cN2NgbfkJd5qnOZjlfYI-8" target="cN2NgbfkJd5qnOZjlfYI-12" edge="1">
                    <mxGeometry relative="1" as="geometry">
                        <mxPoint x="210" y="676" as="targetPoint"/>
                        <mxPoint x="350" y="511.1111111111111" as="sourcePoint"/>
                    </mxGeometry>
                </mxCell>
                <mxCell id="cN2NgbfkJd5qnOZjlfYI-12" value="" style="rhombus;whiteSpace=wrap;html=1;fillColor=#ffffc0;strokeColor=#ff0000;" parent="kJnouxsRyTXpM78P7oy--1" vertex="1">
                    <mxGeometry x="90" y="660" width="80" height="40" as="geometry"/>
                </mxCell>
                <mxCell id="cN2NgbfkJd5qnOZjlfYI-13" value="oui" style="html=1;align=left;verticalAlign=top;endArrow=open;endSize=8;strokeColor=#ff0000;" parent="kJnouxsRyTXpM78P7oy--1" source="cN2NgbfkJd5qnOZjlfYI-12" target="cN2NgbfkJd5qnOZjlfYI-24" edge="1">
                    <mxGeometry x="-0.1154" y="-3" relative="1" as="geometry">
                        <mxPoint x="150" y="800" as="targetPoint"/>
                        <mxPoint as="offset"/>
                    </mxGeometry>
                </mxCell>
                <mxCell id="cN2NgbfkJd5qnOZjlfYI-14" value="" style="html=1;align=left;verticalAlign=top;endArrow=open;endSize=8;strokeColor=#ff0000;" parent="kJnouxsRyTXpM78P7oy--1" source="cN2NgbfkJd5qnOZjlfYI-5" target="f_-ND99662alDHh7XFFO-3" edge="1">
                    <mxGeometry x="-1" relative="1" as="geometry">
                        <mxPoint x="140.909090909091" y="520" as="targetPoint"/>
                        <mxPoint x="340" y="610" as="sourcePoint"/>
                    </mxGeometry>
                </mxCell>
                <mxCell id="cN2NgbfkJd5qnOZjlfYI-23" value="log_out" style="rounded=1;whiteSpace=wrap;html=1;arcSize=40;fontColor=#000000;fillColor=#ffffc0;strokeColor=#ff0000;" parent="kJnouxsRyTXpM78P7oy--1" vertex="1">
                    <mxGeometry x="120" y="970" width="120" height="40" as="geometry"/>
                </mxCell>
                <mxCell id="cN2NgbfkJd5qnOZjlfYI-24" value="" style="rhombus;whiteSpace=wrap;html=1;fillColor=#ffffc0;strokeColor=#ff0000;" parent="kJnouxsRyTXpM78P7oy--1" vertex="1">
                    <mxGeometry x="30" y="750" width="80" height="40" as="geometry"/>
                </mxCell>
                <mxCell id="cN2NgbfkJd5qnOZjlfYI-25" value="" style="html=1;verticalAlign=bottom;endArrow=open;endSize=8;strokeColor=#ff0000;entryX=0;entryY=0.5;entryDx=0;entryDy=0;exitX=0.5;exitY=1;exitDx=0;exitDy=0;" parent="kJnouxsRyTXpM78P7oy--1" source="cN2NgbfkJd5qnOZjlfYI-24" target="cN2NgbfkJd5qnOZjlfYI-23" edge="1">
                    <mxGeometry relative="1" as="geometry">
                        <mxPoint x="180" y="690" as="targetPoint"/>
                        <mxPoint x="50" y="920" as="sourcePoint"/>
                    </mxGeometry>
                </mxCell>
                <mxCell id="cN2NgbfkJd5qnOZjlfYI-26" value="delete" style="rounded=1;whiteSpace=wrap;html=1;arcSize=40;fontColor=#000000;fillColor=#ffffc0;strokeColor=#ff0000;" parent="kJnouxsRyTXpM78P7oy--1" vertex="1">
                    <mxGeometry x="120" y="910" width="120" height="40" as="geometry"/>
                </mxCell>
                <mxCell id="cN2NgbfkJd5qnOZjlfYI-27" value="" style="html=1;verticalAlign=bottom;endArrow=open;endSize=8;strokeColor=#ff0000;entryX=0;entryY=0.5;entryDx=0;entryDy=0;exitX=0.5;exitY=1;exitDx=0;exitDy=0;" parent="kJnouxsRyTXpM78P7oy--1" source="cN2NgbfkJd5qnOZjlfYI-24" target="cN2NgbfkJd5qnOZjlfYI-26" edge="1">
                    <mxGeometry relative="1" as="geometry">
                        <mxPoint x="140" y="1110" as="targetPoint"/>
                        <mxPoint x="150" y="870" as="sourcePoint"/>
                    </mxGeometry>
                </mxCell>
                <mxCell id="cN2NgbfkJd5qnOZjlfYI-28" value="reset_password" style="rounded=1;whiteSpace=wrap;html=1;arcSize=40;fontColor=#000000;fillColor=#ffffc0;strokeColor=#ff0000;" parent="kJnouxsRyTXpM78P7oy--1" vertex="1">
                    <mxGeometry x="120" y="850" width="120" height="40" as="geometry"/>
                </mxCell>
                <mxCell id="cN2NgbfkJd5qnOZjlfYI-29" value="" style="html=1;verticalAlign=bottom;endArrow=open;endSize=8;strokeColor=#ff0000;entryX=0;entryY=0.5;entryDx=0;entryDy=0;exitX=0.5;exitY=1;exitDx=0;exitDy=0;" parent="kJnouxsRyTXpM78P7oy--1" source="cN2NgbfkJd5qnOZjlfYI-24" target="cN2NgbfkJd5qnOZjlfYI-28" edge="1">
                    <mxGeometry relative="1" as="geometry">
                        <mxPoint x="150" y="1020" as="targetPoint"/>
                        <mxPoint x="80" y="820" as="sourcePoint"/>
                    </mxGeometry>
                </mxCell>
                <mxCell id="cN2NgbfkJd5qnOZjlfYI-30" value="logged = false" style="rounded=1;whiteSpace=wrap;html=1;arcSize=40;fontColor=#000000;fillColor=#ffffc0;strokeColor=#ff0000;" parent="kJnouxsRyTXpM78P7oy--1" vertex="1">
                    <mxGeometry x="570" y="940" width="120" height="40" as="geometry"/>
                </mxCell>
                <mxCell id="cN2NgbfkJd5qnOZjlfYI-31" value="" style="html=1;verticalAlign=bottom;endArrow=open;endSize=8;strokeColor=#ff0000;" parent="kJnouxsRyTXpM78P7oy--1" source="cN2NgbfkJd5qnOZjlfYI-26" target="cN2NgbfkJd5qnOZjlfYI-30" edge="1">
                    <mxGeometry relative="1" as="geometry">
                        <mxPoint x="130" y="880" as="targetPoint"/>
                        <mxPoint x="80" y="800" as="sourcePoint"/>
                    </mxGeometry>
                </mxCell>
                <mxCell id="cN2NgbfkJd5qnOZjlfYI-32" value="" style="html=1;verticalAlign=bottom;endArrow=open;endSize=8;strokeColor=#ff0000;" parent="kJnouxsRyTXpM78P7oy--1" source="cN2NgbfkJd5qnOZjlfYI-23" target="cN2NgbfkJd5qnOZjlfYI-30" edge="1">
                    <mxGeometry relative="1" as="geometry">
                        <mxPoint x="580" y="966" as="targetPoint"/>
                        <mxPoint x="250" y="944" as="sourcePoint"/>
                    </mxGeometry>
                </mxCell>
                <mxCell id="cN2NgbfkJd5qnOZjlfYI-33" value="" style="ellipse;html=1;shape=endState;fillColor=#000000;strokeColor=#ff0000;" parent="kJnouxsRyTXpM78P7oy--1" vertex="1">
                    <mxGeometry x="130" y="1090" width="30" height="30" as="geometry"/>
                </mxCell>
                <mxCell id="cN2NgbfkJd5qnOZjlfYI-34" value="" style="html=1;verticalAlign=bottom;endArrow=open;endSize=8;strokeColor=#ff0000;" parent="kJnouxsRyTXpM78P7oy--1" source="cN2NgbfkJd5qnOZjlfYI-30" target="cN2NgbfkJd5qnOZjlfYI-33" edge="1">
                    <mxGeometry relative="1" as="geometry">
                        <mxPoint x="580" y="974" as="targetPoint"/>
                        <mxPoint x="680" y="1050" as="sourcePoint"/>
                    </mxGeometry>
                </mxCell>
                <mxCell id="cN2NgbfkJd5qnOZjlfYI-35" value="non" style="html=1;align=left;verticalAlign=top;endArrow=open;endSize=8;strokeColor=#ff0000;" parent="kJnouxsRyTXpM78P7oy--1" source="cN2NgbfkJd5qnOZjlfYI-12" target="cN2NgbfkJd5qnOZjlfYI-36" edge="1">
                    <mxGeometry x="0.0034" y="12" relative="1" as="geometry">
                        <mxPoint x="200" y="760" as="targetPoint"/>
                        <mxPoint x="130" y="705" as="sourcePoint"/>
                        <mxPoint as="offset"/>
                    </mxGeometry>
                </mxCell>
                <mxCell id="cN2NgbfkJd5qnOZjlfYI-36" value="" style="ellipse;html=1;shape=endState;fillColor=#000000;strokeColor=#ff0000;" parent="kJnouxsRyTXpM78P7oy--1" vertex="1">
                    <mxGeometry x="195" y="740" width="30" height="30" as="geometry"/>
                </mxCell>
                <mxCell id="f_-ND99662alDHh7XFFO-3" value="stay" style="rhombus;whiteSpace=wrap;html=1;fillColor=#ffffc0;strokeColor=#ff0000;" parent="kJnouxsRyTXpM78P7oy--1" vertex="1">
                    <mxGeometry x="560" y="470" width="80" height="40" as="geometry"/>
                </mxCell>
                <mxCell id="f_-ND99662alDHh7XFFO-4" value="oui" style="html=1;align=left;verticalAlign=top;endArrow=open;endSize=8;strokeColor=#ff0000;" parent="kJnouxsRyTXpM78P7oy--1" source="f_-ND99662alDHh7XFFO-3" target="cN2NgbfkJd5qnOZjlfYI-9" edge="1">
                    <mxGeometry x="-0.1154" y="-3" relative="1" as="geometry">
                        <mxPoint x="370" y="605" as="targetPoint"/>
                        <mxPoint as="offset"/>
                    </mxGeometry>
                </mxCell>
                <mxCell id="f_-ND99662alDHh7XFFO-5" value="non" style="html=1;align=left;verticalAlign=top;endArrow=open;endSize=8;strokeColor=#ff0000;" parent="kJnouxsRyTXpM78P7oy--1" source="f_-ND99662alDHh7XFFO-3" target="cN2NgbfkJd5qnOZjlfYI-8" edge="1">
                    <mxGeometry x="-0.4544" y="-19" relative="1" as="geometry">
                        <mxPoint x="489.0569419378987" y="594.74088306678" as="targetPoint"/>
                        <mxPoint x="420" y="555" as="sourcePoint"/>
                        <mxPoint as="offset"/>
                    </mxGeometry>
                </mxCell>
            </root>
        </mxGraphModel>
    </diagram>
    <diagram id="b-lQx8sLt_0nUlZw0DZu" name="UserManager">
        <mxGraphModel dx="1175" dy="798" grid="1" gridSize="10" guides="1" tooltips="1" connect="1" arrows="1" fold="1" page="1" pageScale="1" pageWidth="827" pageHeight="1169" math="0" shadow="0">
            <root>
                <mxCell id="DyDfvB5neiGvLx3PL-S7-0"/>
                <mxCell id="DyDfvB5neiGvLx3PL-S7-1" parent="DyDfvB5neiGvLx3PL-S7-0"/>
                <mxCell id="DyDfvB5neiGvLx3PL-S7-2" value="UserManager" style="ellipse;whiteSpace=wrap;html=1;shadow=0;fillColor=#f8cecc;fontColor=#000000;strokeColor=#b85450;" parent="DyDfvB5neiGvLx3PL-S7-1" vertex="1">
                    <mxGeometry x="500" y="260" width="140" height="70" as="geometry"/>
                </mxCell>
                <mxCell id="DyDfvB5neiGvLx3PL-S7-3" value="Login" style="ellipse;whiteSpace=wrap;html=1;shadow=0;fillColor=#fff2cc;fontColor=#000000;strokeColor=#d6b656;" parent="DyDfvB5neiGvLx3PL-S7-1" vertex="1">
                    <mxGeometry x="170" y="340" width="140" height="70" as="geometry"/>
                </mxCell>
                <mxCell id="DyDfvB5neiGvLx3PL-S7-4" value="Encryption / Decryption&lt;br&gt;" style="ellipse;whiteSpace=wrap;html=1;fillColor=#fff2cc;fontColor=#000000;strokeColor=#d6b656;" parent="DyDfvB5neiGvLx3PL-S7-1" vertex="1">
                    <mxGeometry x="690" y="465" width="170" height="70" as="geometry"/>
                </mxCell>
                <mxCell id="DyDfvB5neiGvLx3PL-S7-5" style="edgeStyle=none;rounded=0;html=1;startArrow=none;startFill=0;jettySize=auto;orthogonalLoop=1;fontColor=#000000;" parent="DyDfvB5neiGvLx3PL-S7-1" source="DyDfvB5neiGvLx3PL-S7-2" target="DyDfvB5neiGvLx3PL-S7-3" edge="1">
                    <mxGeometry relative="1" as="geometry"/>
                </mxCell>
                <mxCell id="DyDfvB5neiGvLx3PL-S7-6" style="edgeStyle=none;rounded=0;html=1;startArrow=none;startFill=0;jettySize=auto;orthogonalLoop=1;fontColor=#000000;" parent="DyDfvB5neiGvLx3PL-S7-1" source="DyDfvB5neiGvLx3PL-S7-2" target="DyDfvB5neiGvLx3PL-S7-4" edge="1">
                    <mxGeometry relative="1" as="geometry"/>
                </mxCell>
                <mxCell id="DyDfvB5neiGvLx3PL-S7-7" value="Settings and customizations&lt;br&gt;" style="ellipse;whiteSpace=wrap;html=1;fillColor=#fff2cc;fontColor=#000000;strokeColor=#d6b656;" parent="DyDfvB5neiGvLx3PL-S7-1" vertex="1">
                    <mxGeometry x="810" y="378.5" width="170" height="70" as="geometry"/>
                </mxCell>
                <mxCell id="DyDfvB5neiGvLx3PL-S7-8" style="edgeStyle=none;rounded=0;html=1;startArrow=none;startFill=0;jettySize=auto;orthogonalLoop=1;fontColor=#000000;" parent="DyDfvB5neiGvLx3PL-S7-1" source="DyDfvB5neiGvLx3PL-S7-2" target="DyDfvB5neiGvLx3PL-S7-7" edge="1">
                    <mxGeometry relative="1" as="geometry"/>
                </mxCell>
                <mxCell id="DyDfvB5neiGvLx3PL-S7-9" value="Run desktop App" style="ellipse;whiteSpace=wrap;html=1;shadow=0;fillColor=#fff2cc;fontColor=#000000;strokeColor=#d6b656;" parent="DyDfvB5neiGvLx3PL-S7-1" vertex="1">
                    <mxGeometry x="325" y="80" width="140" height="70" as="geometry"/>
                </mxCell>
                <mxCell id="DyDfvB5neiGvLx3PL-S7-10" style="edgeStyle=none;rounded=0;html=1;startArrow=none;startFill=0;jettySize=auto;orthogonalLoop=1;fontColor=#000000;" parent="DyDfvB5neiGvLx3PL-S7-1" source="DyDfvB5neiGvLx3PL-S7-2" target="DyDfvB5neiGvLx3PL-S7-9" edge="1">
                    <mxGeometry relative="1" as="geometry"/>
                </mxCell>
                <mxCell id="DyDfvB5neiGvLx3PL-S7-11" value="Apps variables&lt;br&gt;" style="ellipse;whiteSpace=wrap;html=1;fillColor=#fff2cc;fontColor=#000000;strokeColor=#d6b656;" parent="DyDfvB5neiGvLx3PL-S7-1" vertex="1">
                    <mxGeometry x="880" y="180" width="170" height="70" as="geometry"/>
                </mxCell>
                <mxCell id="DyDfvB5neiGvLx3PL-S7-12" value="Medias&lt;br&gt;" style="ellipse;whiteSpace=wrap;html=1;fillColor=#fff2cc;fontColor=#000000;strokeColor=#d6b656;" parent="DyDfvB5neiGvLx3PL-S7-1" vertex="1">
                    <mxGeometry x="860" y="90" width="170" height="70" as="geometry"/>
                </mxCell>
                <mxCell id="DyDfvB5neiGvLx3PL-S7-13" style="edgeStyle=none;rounded=0;html=1;startArrow=none;startFill=0;jettySize=auto;orthogonalLoop=1;fontColor=#000000;" parent="DyDfvB5neiGvLx3PL-S7-1" source="DyDfvB5neiGvLx3PL-S7-2" target="DyDfvB5neiGvLx3PL-S7-11" edge="1">
                    <mxGeometry relative="1" as="geometry"/>
                </mxCell>
                <mxCell id="DyDfvB5neiGvLx3PL-S7-14" style="edgeStyle=none;rounded=0;html=1;startArrow=none;startFill=0;jettySize=auto;orthogonalLoop=1;fontColor=#000000;" parent="DyDfvB5neiGvLx3PL-S7-1" source="DyDfvB5neiGvLx3PL-S7-2" target="DyDfvB5neiGvLx3PL-S7-12" edge="1">
                    <mxGeometry relative="1" as="geometry"/>
                </mxCell>
                <mxCell id="DyDfvB5neiGvLx3PL-S7-15" value="Run security App" style="ellipse;whiteSpace=wrap;html=1;shadow=0;fillColor=#fff2cc;fontColor=#000000;strokeColor=#d6b656;" parent="DyDfvB5neiGvLx3PL-S7-1" vertex="1">
                    <mxGeometry x="480" y="40" width="140" height="70" as="geometry"/>
                </mxCell>
                <mxCell id="DyDfvB5neiGvLx3PL-S7-16" style="edgeStyle=none;rounded=0;html=1;startArrow=none;startFill=0;jettySize=auto;orthogonalLoop=1;fontColor=#000000;" parent="DyDfvB5neiGvLx3PL-S7-1" source="DyDfvB5neiGvLx3PL-S7-2" target="DyDfvB5neiGvLx3PL-S7-15" edge="1">
                    <mxGeometry relative="1" as="geometry"/>
                </mxCell>
                <mxCell id="DyDfvB5neiGvLx3PL-S7-17" value="By Tookantook protocol" style="ellipse;whiteSpace=wrap;html=1;shadow=0;fillColor=#dae8fc;fontColor=#000000;strokeColor=#6c8ebf;" parent="DyDfvB5neiGvLx3PL-S7-1" vertex="1">
                    <mxGeometry x="250" y="520" width="140" height="70" as="geometry"/>
                </mxCell>
                <mxCell id="DyDfvB5neiGvLx3PL-S7-18" style="edgeStyle=none;rounded=0;html=1;startArrow=none;startFill=0;jettySize=auto;orthogonalLoop=1;fontColor=#000000;" parent="DyDfvB5neiGvLx3PL-S7-1" source="DyDfvB5neiGvLx3PL-S7-3" target="DyDfvB5neiGvLx3PL-S7-17" edge="1">
                    <mxGeometry relative="1" as="geometry"/>
                </mxCell>
                <mxCell id="DyDfvB5neiGvLx3PL-S7-19" value="In local" style="ellipse;whiteSpace=wrap;html=1;shadow=0;fillColor=#dae8fc;fontColor=#000000;strokeColor=#6c8ebf;" parent="DyDfvB5neiGvLx3PL-S7-1" vertex="1">
                    <mxGeometry x="40" y="510" width="140" height="70" as="geometry"/>
                </mxCell>
                <mxCell id="DyDfvB5neiGvLx3PL-S7-20" style="edgeStyle=none;rounded=0;html=1;startArrow=none;startFill=0;jettySize=auto;orthogonalLoop=1;fontColor=#000000;" parent="DyDfvB5neiGvLx3PL-S7-1" source="DyDfvB5neiGvLx3PL-S7-3" target="DyDfvB5neiGvLx3PL-S7-19" edge="1">
                    <mxGeometry relative="1" as="geometry"/>
                </mxCell>
                <mxCell id="DyDfvB5neiGvLx3PL-S7-21" value="Run search App" style="ellipse;whiteSpace=wrap;html=1;shadow=0;fillColor=#fff2cc;fontColor=#000000;strokeColor=#d6b656;" parent="DyDfvB5neiGvLx3PL-S7-1" vertex="1">
                    <mxGeometry x="650" y="40" width="140" height="70" as="geometry"/>
                </mxCell>
                <mxCell id="DyDfvB5neiGvLx3PL-S7-22" style="rounded=0;html=1;jettySize=auto;orthogonalLoop=1;" parent="DyDfvB5neiGvLx3PL-S7-1" source="DyDfvB5neiGvLx3PL-S7-2" target="DyDfvB5neiGvLx3PL-S7-21" edge="1">
                    <mxGeometry relative="1" as="geometry"/>
                </mxCell>
            </root>
        </mxGraphModel>
    </diagram>
</mxfile>